<svg viewBox="0 0 330 200" xmlns="http://www.w3.org/2000/svg"><g><g><g><g><g><line x1="51.5625" y1="177" x2="46.5625" y2="177" style="visibility: inherit;" fill="rgb(0, 0, 0)" stroke="rgb(204, 204, 204)" stroke-width="1px"></line><line x1="51.5625" y1="154.875" x2="46.5625" y2="154.875" style="visibility: inherit;" fill="rgb(0, 0, 0)" stroke="rgb(204, 204, 204)" stroke-width="1px"></line><line x1="51.5625" y1="132.75" x2="46.5625" y2="132.75" style="visibility: inherit;" fill="rgb(0, 0, 0)" stroke="rgb(204, 204, 204)" stroke-width="1px"></line><line x1="51.5625" y1="110.625" x2="46.5625" y2="110.625" style="visibility: inherit;" fill="rgb(0, 0, 0)" stroke="rgb(204, 204, 204)" stroke-width="1px"></line><line x1="51.5625" y1="88.5" x2="46.5625" y2="88.5" style="visibility: inherit;" fill="rgb(0, 0, 0)" stroke="rgb(204, 204, 204)" stroke-width="1px"></line><line x1="51.5625" y1="66.375" x2="46.5625" y2="66.375" style="visibility: inherit;" fill="rgb(0, 0, 0)" stroke="rgb(204, 204, 204)" stroke-width="1px"></line><line x1="51.5625" y1="44.25" x2="46.5625" y2="44.25" style="visibility: inherit;" fill="rgb(0, 0, 0)" stroke="rgb(204, 204, 204)" stroke-width="1px"></line><line x1="51.5625" y1="22.125" x2="46.5625" y2="22.125" style="visibility: inherit;" fill="rgb(0, 0, 0)" stroke="rgb(204, 204, 204)" stroke-width="1px"></line><line x1="51.5625" y1="0" x2="46.5625" y2="0" style="visibility: inherit;" fill="rgb(0, 0, 0)" stroke="rgb(204, 204, 204)" stroke-width="1px"></line></g><g transform="translate(41.5625, 0)"><text x="0" y="177" dx="0em" dy="0.3em" style="text-anchor: end; visibility: hidden; font-family: Roboto, sans-serif; font-size: 12px; font-weight: 200;" fill="rgb(33, 33, 33)" stroke="none" stroke-width="1px">-450</text><text x="0" y="154.875" dx="0em" dy="0.3em" style="text-anchor: end; visibility: inherit; font-family: Roboto, sans-serif; font-size: 12px; font-weight: 200;" fill="rgb(33, 33, 33)" stroke="none" stroke-width="1px">-400</text><text x="0" y="132.75" dx="0em" dy="0.3em" style="text-anchor: end; visibility: hidden; font-family: Roboto, sans-serif; font-size: 12px; font-weight: 200;" fill="rgb(33, 33, 33)" stroke="none" stroke-width="1px">-350</text><text x="0" y="110.625" dx="0em" dy="0.3em" style="text-anchor: end; visibility: inherit; font-family: Roboto, sans-serif; font-size: 12px; font-weight: 200;" fill="rgb(33, 33, 33)" stroke="none" stroke-width="1px">-300</text><text x="0" y="88.5" dx="0em" dy="0.3em" style="text-anchor: end; visibility: hidden; font-family: Roboto, sans-serif; font-size: 12px; font-weight: 200;" fill="rgb(33, 33, 33)" stroke="none" stroke-width="1px">-250</text><text x="0" y="66.375" dx="0em" dy="0.3em" style="text-anchor: end; visibility: inherit; font-family: Roboto, sans-serif; font-size: 12px; font-weight: 200;" fill="rgb(33, 33, 33)" stroke="none" stroke-width="1px">-200</text><text x="0" y="44.25" dx="0em" dy="0.3em" style="text-anchor: end; visibility: hidden; font-family: Roboto, sans-serif; font-size: 12px; font-weight: 200;" fill="rgb(33, 33, 33)" stroke="none" stroke-width="1px">-150</text><text x="0" y="22.125" dx="0em" dy="0.3em" style="text-anchor: end; visibility: inherit; font-family: Roboto, sans-serif; font-size: 12px; font-weight: 200;" fill="rgb(33, 33, 33)" stroke="none" stroke-width="1px">-100</text><text x="0" y="0" dx="0em" dy="0.3em" style="text-anchor: end; visibility: hidden; font-family: Roboto, sans-serif; font-size: 12px; font-weight: 200;" fill="rgb(33, 33, 33)" stroke="none" stroke-width="1px">-50</text></g><line x1="51.5625" y1="0" x2="51.5625" y2="177" fill="rgb(0, 0, 0)" stroke="rgb(204, 204, 204)" stroke-width="1px"></line></g></g><g transform="translate(51, 0)" clip-path="url(#clip_0)"><clipPath id="clip_0"><rect width="278" height="177"></rect></clipPath><g><g><g><line x1="0" y1="0" x2="0" y2="177" fill="rgb(0, 0, 0)" stroke="rgb(66, 66, 66)" stroke-width="1px" opacity="0.25"></line><line x1="23.203125" y1="0" x2="23.203125" y2="177" fill="rgb(0, 0, 0)" stroke="rgb(66, 66, 66)" stroke-width="1px" opacity="0.25"></line><line x1="46.40625" y1="0" x2="46.40625" y2="177" fill="rgb(0, 0, 0)" stroke="rgb(66, 66, 66)" stroke-width="1px" opacity="0.25"></line><line x1="69.609375" y1="0" x2="69.609375" y2="177" fill="rgb(0, 0, 0)" stroke="rgb(66, 66, 66)" stroke-width="1px" opacity="0.25"></line><line x1="92.8125" y1="0" x2="92.8125" y2="177" fill="rgb(0, 0, 0)" stroke="rgb(66, 66, 66)" stroke-width="1px" opacity="0.25"></line><line x1="116.015625" y1="0" x2="116.015625" y2="177" fill="rgb(0, 0, 0)" stroke="rgb(66, 66, 66)" stroke-width="1px" opacity="0.25"></line><line x1="139.21875" y1="0" x2="139.21875" y2="177" fill="rgb(0, 0, 0)" stroke="rgb(66, 66, 66)" stroke-width="1px" opacity="0.25"></line><line x1="162.421875" y1="0" x2="162.421875" y2="177" fill="rgb(0, 0, 0)" stroke="rgb(66, 66, 66)" stroke-width="1px" opacity="0.25"></line><line x1="185.625" y1="0" x2="185.625" y2="177" fill="rgb(0, 0, 0)" stroke="rgb(66, 66, 66)" stroke-width="1px" opacity="0.25"></line><line x1="208.828125" y1="0" x2="208.828125" y2="177" fill="rgb(0, 0, 0)" stroke="rgb(66, 66, 66)" stroke-width="1px" opacity="0.25"></line><line x1="232.03125" y1="0" x2="232.03125" y2="177" fill="rgb(0, 0, 0)" stroke="rgb(66, 66, 66)" stroke-width="1px" opacity="0.25"></line><line x1="255.234375" y1="0" x2="255.234375" y2="177" fill="rgb(0, 0, 0)" stroke="rgb(66, 66, 66)" stroke-width="1px" opacity="0.25"></line><line x1="278.4375" y1="0" x2="278.4375" y2="177" fill="rgb(0, 0, 0)" stroke="rgb(66, 66, 66)" stroke-width="1px" opacity="0.25"></line></g><g><line x1="0" y1="177" x2="278.4375" y2="177" fill="rgb(0, 0, 0)" stroke="rgb(66, 66, 66)" stroke-width="1px" opacity="0.25"></line><line x1="0" y1="154.875" x2="278.4375" y2="154.875" fill="rgb(0, 0, 0)" stroke="rgb(66, 66, 66)" stroke-width="1px" opacity="0.25"></line><line x1="0" y1="132.75" x2="278.4375" y2="132.75" fill="rgb(0, 0, 0)" stroke="rgb(66, 66, 66)" stroke-width="1px" opacity="0.25"></line><line x1="0" y1="110.625" x2="278.4375" y2="110.625" fill="rgb(0, 0, 0)" stroke="rgb(66, 66, 66)" stroke-width="1px" opacity="0.25"></line><line x1="0" y1="88.5" x2="278.4375" y2="88.5" fill="rgb(0, 0, 0)" stroke="rgb(66, 66, 66)" stroke-width="1px" opacity="0.25"></line><line x1="0" y1="66.375" x2="278.4375" y2="66.375" fill="rgb(0, 0, 0)" stroke="rgb(66, 66, 66)" stroke-width="1px" opacity="0.25"></line><line x1="0" y1="44.25" x2="278.4375" y2="44.25" fill="rgb(0, 0, 0)" stroke="rgb(66, 66, 66)" stroke-width="1px" opacity="0.25"></line><line x1="0" y1="22.125" x2="278.4375" y2="22.125" fill="rgb(0, 0, 0)" stroke="rgb(66, 66, 66)" stroke-width="1px" opacity="0.25"></line><line x1="0" y1="0" x2="278.4375" y2="0" fill="rgb(0, 0, 0)" stroke="rgb(66, 66, 66)" stroke-width="1px" opacity="0.25"></line></g></g></g><g><g><line x1="0" y1="-22.125" x2="278.4375" y2="-22.125" fill="rgb(0, 0, 0)" stroke="rgb(153, 153, 153)" stroke-width="1.5px"></line></g></g><g><g><line x1="23.203125" y1="0" x2="23.203125" y2="177" fill="rgb(0, 0, 0)" stroke="rgb(153, 153, 153)" stroke-width="1.5px"></line></g></g><g><g><g><g><g><path stroke="rgb(255, 112, 67)" stroke-width="2px" d="M29.81596921875,180.11051993488437L30.679125468749998,175.83858824777658L31.05501609375,170.47246173122514L31.27776609375,175.51968024979874L31.37521921875,181.4809353205633L32.04346921875,177.7850225253521L32.22445359375,174.4719317171869L32.41935984375,178.2416447576403L32.55857859375,170.51459483020633L33.15721921875,169.8383015513758L33.26859421875,157.0071060428494L33.95076609375,160.3623801881172L34.14567234375,160.68234284257903L34.17351609375,175.05100366968128L34.38234421875,189.35552585215254L34.46587546875,181.8079611203232L34.855687968750004,165.47697697267958L36.37317234375,164.75440686603025L36.735141093749995,173.26136356517517L36.74906296875,161.93933990342845L36.83259421875,176.57453951846912L37.20848484375,187.48527151160488L38.433609843750006,178.4992094892437L38.586750468750004,171.12129210987294L39.38029734375,160.30505666663785L39.64481296875,172.73778647319887L40.77248484375,161.44522827969942L41.53818796875,157.10288699817474L41.57995359375,154.21800285924047L41.77485984375,154.4553547245807L41.83054734375,157.9292420400988L42.49879734375,161.23196728218073L42.59625046875,164.82773353094L42.90253171875,149.94655036634077L43.069594218750005,147.26101203742857L43.20881296875,161.1419910725635L43.62646921875,144.59983142331706L43.77960984375,135.88071544334375L43.974516093750005,147.1260185604414L44.42001609375,152.94688350565008L44.823750468750006,142.61517743615323L45.046500468750004,156.03489256398726L45.26925046875,146.3834212561656L45.32493796875,145.35296233011536L45.56160984375,143.1084940728739L46.04887546875,151.00831299645873L46.75889109375,148.9045680591057L47.00948484375,151.88264540699663L47.134781718750006,155.48810091607297L47.32968796875,159.4904446255715L47.35753171875,158.3522289640636L47.39929734375,153.7538497685749L48.01185984375,152.8627804727172L48.63834421875,131.96080701654049L48.88893796875001,127.96112611666254L49.014234843749996,138.59830637678465L49.19521921875,121.65044482460596L49.23698484375,127.4232819399296L49.348359843749996,149.74773106581324L49.90523484375,137.4781135540387L50.14190671874999,133.79973962290177L50.32289109375,148.82722600640707L51.07467234375,137.59729562581688L51.56193796875,133.34105370605653L52.13273484375,121.93284682324327L52.39725046875,123.04173055488349L53.664141093750004,122.89351330851602L53.83120359375,115.6080323930686L53.99826609375,116.95796311259897L54.27670359375,118.53056964612384L54.34631296875,131.68894850764502L54.36023484375001,132.08434084530967L54.638672343749995,126.99053157017406L54.708281718749994,121.18532818893061L55.33476609375,113.00864344656148L55.50182859375,108.96576687848378L55.989094218750004,106.3370267774809L56.476359843750004,108.19400296224049L56.49028171875,115.70413401611383L56.51812546875,120.4802986164554L57.13068796875,119.67360388300803L57.367359843749995,115.77052912057628L57.395203593750004,120.7972221354317L57.46481296875,123.16313241455983L57.812859843750005,127.44333413013238L57.82678171875,116.95558772783527L57.96395859375,112.4392489684883L57.991802343749995,121.01461093504804L58.06141171875,121.84811070775733L58.4645428125,119.54145230111925L58.6733709375,112.5051895569411L58.756902187499996,109.74505932132286L60.590413125000005,108.86179511427808L61.35611625,106.09762751412347L61.551022499999995,96.8596777657983L62.038288124999994,106.83674196221337L63.525376406250004,105.13208524690809L64.51345828125001,97.0384469489261L65.12356125,97.54023568034198L65.499451875,108.40432732129113L65.5412175,107.07344160761843L66.33898734375,105.90647707394605L67.1917021875,105.6331012712231L67.65729609375,106.62422117533151L68.12952609375,102.28273323620475L68.3196525,96.12045808747482L68.34749624999999,103.0836482960884L68.361418125,97.19937331908369L69.15343359375001,93.43685774083987L70.10819578125,86.35430505893262L70.5505865625,80.2308221405842L70.81487015625,78.30546084416498L71.05492968749999,76.58985930068845L71.47662328125,75.85404894222947L73.04464406250001,75.40282632273514L73.26122203125,68.53950985003758L73.28906578125,75.5798418505743L73.92905437499999,87.96339912889927L74.673781875,95.55842848490789L74.84585625000001,90.72859075183342L75.46032140625,72.78562329265279L75.7194075,72.521342267828L75.77384203125,76.15394857969095L75.80168578125,91.38349204210166L76.34431406249999,83.9918445233567L77.14384734375,79.2894870545902L77.51138484375,82.48999684396018L77.8711725,80.69126360930579L78.51700828125,74.6125839102124L79.2948234375,78.12127143072216L79.44531890625001,88.19187555984932L80.32569187499999,78.77109390280413L80.515029375,75.62432437146764L80.58807281249999,74.53051288154758L80.90377453125,76.04238416020296L80.96753671875,65.18702021780146L81.3422671875,56.40623512567599L81.79440328125,66.69127446163608L81.949539375,76.79921926682539L81.97492359375,68.97225717655031L82.8799846875,70.66435497731689L83.2852040625,71.36971241265967L83.9967975,68.20108490914366L84.195045,60.550803319753754L84.4200225,61.700829495514384L85.5492721875,52.69994665665921L85.906321875,47.235837287208426L85.9510575,46.41395697742758L86.0538009375,51.99088952153956L86.8547728125,54.752384039461795L87.26959828125,62.5356424750687L87.39907171875,66.91960382305392L87.41981531249999,52.024668742196596L87.8599321875,62.55741060505919L88.01033484375,58.76742156750328L88.45184390624999,58.16048693708399L89.10403734375,60.64961120827091L89.205991875,64.38687730540688L89.233464375,58.38431736224804L90.04483124999999,58.89676201769061L90.06826640624999,62.81989998405188L90.622310625,62.911363772779765L90.9266428125,66.45182891430264L91.68028031249999,62.98031144465091L92.21882484375,62.13904235079932L93.23335828124999,60.62571903535754L93.42023624999999,52.65256867402214L93.5784815625,64.18050485797774L94.23322734375,58.696941388297404L94.4713378125,54.778741752534096L95.27838890625,46.48838705744086L95.3021953125,54.46936508968911L95.63994000000001,56.662256199809555L96.058895625,56.155325155432614L96.807706875,51.9529910832498L96.84859078125,54.44820752226431L97.00720734375,52.19134985210372L97.36323609374999,43.36500264502687L97.39154390624999,53.41831854258252L98.156458125,48.260991751159864L98.2915003125,44.94030057132579L98.31242953124999,42.432412795188064L98.5716084375,43.72241711375834L98.58771140625001,44.54453995941713L98.646879375,43.87419855450771L98.96861390625,47.71462450990188L99.16198874999999,40.416350549752174L99.3853884375,39.73928191798608L99.48223828124999,46.118226194248656L99.73227515625,52.71471530334118L99.92504671875,44.05509965167025L99.98630296875,50.32629616490351L101.0567559375,50.506408863492865L101.1449278125,40.42272433115725L101.62769203124999,37.31447016235401L101.8137346875,35.33662533471707L101.935783125,34.38055373781758L101.98845421875001,41.532500562392684L102.1202015625,42.85358186514558L102.6304846875,47.48243340558635L102.849800625,50.84016097108621L102.89732062499999,44.68978664612829L103.1155228125,41.44605654273069L103.3003125,41.75806472703L103.407789375,38.149626227880596L103.63708265625,38.071236643710805L104.467336875,47.413821164082925L104.7204365625,46.998457706994685L105.19108875,40.91135366167239L105.26083734375,38.4164458792544L105.40126265625,35.30553350503067L105.8562759375,34.63020207628501L105.93419203125,39.78302900639113L106.18204781249999,35.12386664394697L106.2082209375,41.597582880044946L106.29439734374999,42.71242269860802L106.47974390625,42.056729955834726L106.50823734375001,46.81021805772937L107.2334278125,49.56147363859269L107.28419625,43.42717086528452L107.38707890625,37.82232053217119L108.05217328124999,37.60325210629004L108.25366921875,37.13179042087852L108.43047703124999,33.28115182821068L109.06703156249999,30.514219081545562L109.1227190625,30.549684647169535L109.41006656249999,31.866668751863713L109.82665546875,39.31680696095711L110.03460187499999,35.021916650329146L110.46037921875,35.20690465938695L110.57876156249999,35.747817112038405L110.64702515625,32.82105910267228L110.6541253125,34.999921502863124L110.77292531249999,30.991833280441014L110.98509468750001,38.66763890869431L111.12245718749999,31.640476808351337L111.39987375000001,31.87563799083355L111.47389171875,38.0289590274103L111.567121875,37.4164237868075L111.586055625,32.75235025902298L111.69348609375,34.36155616676632L111.92426437499999,33.180526633714585L112.5726525,32.75834690979418L112.80918515625001,30.923243367739317L112.9430671875,29.46976256422267L113.12864578125,30.18672010262051L113.16628125,30.671575137133832L113.60560921874999,30.974902411076677L113.7299315625,31.459841394766123L113.78018953125,31.814177839484188L113.84283796875,31.243309743241298L114.06419578124999,28.591987608334897L114.48064546875,27.181305655516088L114.6743915625,24.96216744177157L115.060955625,25.908702007726518L115.28328796874999,28.14960575663785L115.34751421875,28.91325602295246L115.4258015625,29.34773851062205L115.52627109375,31.799372873218953L116.227423125,32.19890472216134L116.25076546875,27.605571257369082L116.448316875,28.373208347377986L116.4860915625,31.324582967411143L116.89906078125,28.48539039781729L117.167056875,26.667872498578074L117.20181515624999,23.735378536073117L117.341544375,29.796125726990546L117.37008421875001,26.70379761331836L117.42224484375,26.4395142323587L117.9638521875,24.810566182542644L117.9889115625,23.913608439689174L118.15852640625,24.227092348054217L118.21899375000001,30.13434799916457L118.56708703125,28.77883763555832L118.77164578125,28.79703385880081L118.96386046875,31.276541985812703L118.96952203125,29.134927167500816L119.028875625,27.639402116540516L119.29121015624999,30.567675678493664L119.319564375,30.03766374907617L120.04197046875001,27.954385702143437L120.0597440625,29.125847798544363L120.179750625,29.453935604785805L120.39790640625,32.88900296443396L120.4361915625,29.512959670506092L120.534665625,28.875538352657678L120.54566390625,27.17591074200232L120.56237015625,28.57684063465451L120.68483625,27.690950411981678L120.7244671875,26.279561313168013L120.8551471875,26.256206201658127L120.95348203125,27.735232265916764L121.05645750000001,26.038504891471437L121.09984734375,24.8082432089307L121.156880625,26.78307654822219L121.427893125,26.30690409543721L121.47777984375,26.3051268704093L122.55356953125,25.40437760539987L122.60610140624999,23.02332088391863L122.8369725,33.755323630815035L123.1726753125,31.066883807090104L123.24038203125,33.555378178541154L123.47621859375,43.17532598244208L123.64448765625,38.079358004016036L123.929375625,32.474023509074655L123.94770609375,27.925163723975086L124.05852421875001,26.27297371503689L124.09745906250001,25.45474894307242L124.249764375,23.699715492857614L124.6975846875,21.997775546630116L124.77369093749999,22.77085941214554L124.82408812499999,35.31448844086643L124.89550734375001,30.117038035222976L125.03259140625,26.488977078335925L125.2650403125,24.868047334037694L125.44133765625,26.564314911653085L125.581066875,25.818587100678382L125.68051546874999,23.553537911041783L126.0799340625,22.419871724286207L126.50817093750001,21.67528885641008L126.54320765625,34.28590146326012L126.83180812500001,31.33509680141798L127.01144671875,42.56584683817501L127.4589421875,36.178933647643774L127.93771546875,29.52076531706528L127.96625531250001,25.967385276664928L127.98894796875,25.18286887199263L128.12788828125,23.10530929774392L128.51064703125,31.75483204776255L128.61046687500001,28.222123654927064L128.74690125,25.318529007104186L128.83864640625,25.580676562587694L129.21574359375,27.32982805669325L129.3508321875,24.88613471853744L129.38809640624999,24.267592230963768L129.98757234375,23.671950113968876L130.01207484374999,22.46420672762206L130.1417803125,21.768798267530276L130.454465625,22.482583083442968L130.51595390625002,22.183302840788443L130.53702234375,23.315281036138106L130.68774984375,21.91532833542798L130.8800109375,22.306945704259707L130.885115625,21.762223239206232L131.153158125,20.04054652134357L131.240030625,20.497811295984864L131.31613687499998,19.317725542544526L131.4084853125,19.454942538356296L131.49600750000002,19.10165438867541L131.7012159375,19.497465403896154L131.93960484375,19.159903223050602L131.9447559375,20.079597932060327L132.05863687500002,20.051770546650754L132.09562265625,23.50002412761204L132.2402709375,23.8143978765306L132.29271,22.606370697659088L132.31865109375,25.97175981941333L132.37698375,27.630153502121615L132.42417890625,24.97205296247901L132.4977328125,22.974151409445433L132.6931959375,22.227442971216576L132.70911328125,21.695362083999488L132.88360078125,20.890588367037864L132.90466921875,19.8454636617022L133.02597515625,20.076053984374834L133.056556875,20.765342824584863L133.06699828125,21.6692217393676L133.29151171875,27.58651021647212L133.32367125,27.980943269775857L133.40260828125,25.0993825207034L133.42803890625,22.88606197702166L133.85794640625,22.25236036126182L134.0543840625,30.125131701376258L134.16858984375,32.537914958325736L134.66903484375,31.69055504341586L134.96306484375,37.19378814995089L134.99090859375,47.049600267289875L135.00483046875,48.90086515610146L135.82232296875,48.6027191058679L135.98938546875,54.349642175190645L137.5380084375,42.14880674371302L138.03191015625,45.515825626428004L138.28152937500002,41.80806297229234L138.68303625000001,46.37420581010881L138.79714921875,44.46497851841391L139.01924953125,48.2832339677378L139.10848875,35.389816212246686L139.20570984375001,33.44912194322935L139.49741953125,29.441079763837987L139.837809375,32.952166702907306L139.95642375,40.558828647232644L140.16641203125,31.390029800949446L140.26349390625,26.21673363221762L140.27565234375,22.934338008004897L140.75224453125,20.808395697258984L141.20173546875,20.01775456618253L141.4398459375,19.310113455957094L141.883025625,21.119277378383824L142.01505140625,19.957874219693878L142.0421990625,18.344836668657127L142.11965109375,19.674792076877896L142.21909968749998,18.805448602755135L142.2673621875,18.05147195095973L142.38606937499998,18.63107865855189L142.45785984375001,18.698465295106743L143.208759375,34.604591094178296L143.41698421875,27.971333262158836L143.45021109375,26.72946614839638L143.55462515625,23.725250230419668L143.7564459375,21.86155418335679L143.813154375,19.060159354801673L144.33991171875002,25.545668870327294L144.35652515625,23.07590474016511L144.47954812499998,21.318353421491658L145.11619546875002,30.60942077481881L145.24149234375,35.52712261869988L145.47681843750001,28.05204508611252L145.60726640625,24.168373459748565L145.86820874999998,61.131238705976095L146.3672615625,43.62594730988937L146.89420453125,33.556689311836934L147.1597875,28.152369353398544L147.36870843749998,32.15630230356746L147.7360603125,27.39236187988218L147.82692375000002,24.279230627379995L148.00452046874997,21.860035065270775L148.17056203125,20.702382939492047L148.31024484374998,19.771404998680573L148.33725328125,18.769186596620447L148.4059809375,18.491895518152937L148.5104878125,18.870787876992846L148.74757734375,19.033416039794332L148.85844187499998,18.64263325729944L149.194051875,18.905878858798605L149.30848968749999,26.532728731294792L149.48868515625003,23.97201235321779L149.5650234375,21.660541777775396L149.6348184375,20.56141677198751L149.73408140625,20.780426074850244L149.82178921874998,20.367442412488266L149.84476031249997,19.941020928449976L149.94184218750001,19.988117409364893L150.1584665625,19.661005989442206L150.30910125,18.525482652503197L150.3702646875,17.583507143686994L150.3752765625,17.128925231951946L150.39583453125002,17.682923757945563L150.55621453125002,16.516467557379645L150.98774625,18.315677676456584L151.20947531250002,17.976072163735296L151.53288046875,18.86611354360251L151.555573125,20.239244931276243L151.684396875,19.376486831507467L151.9532746875,18.53459890127264L152.1299896875,19.63113572931341L152.35125468750002,20.04383817586928L152.6683021875,23.96437169214266L152.85109640625,35.087169279934045L152.96247140625,40.98410422604146L153.030178125,45.20870466208973L153.5192071875,34.36750880799603L153.53679515624998,27.695500691902108L153.92554031249998,23.523195678813142L154.05668437499997,20.59449654699734L154.09988859375,18.709981344946453L154.21432640625002,18.301732337241297L154.408815,17.321013248780343L154.58436984374998,17.409756150256968L154.70024625,18.119671729094613L154.78099312499998,17.289660016826872L155.09377125,18.749881589014592L155.19321984375,17.788294531106494L155.2076521875,17.14345079398129L155.25582187499998,20.00101564393027L155.28482578125,18.63277799597732L155.39336999999998,18.860589305826128L155.79603703125002,18.94952179638631L156.87164109375,19.366706821728254L156.91349953125,19.224906768207862L157.05225421875,20.50015908015079L157.3705546875,22.947229092194476L157.38016078125,28.29053440050711L157.412413125,25.63748970768706L157.46053640625,24.88548921645797L157.61817843749998,24.01897793234058L157.72551609375,25.472930674199283L157.78473046874998,24.6027479064727L158.417386875,23.590656731859706L159.01254703125002,21.337066516837982L159.32708859374998,20.464717266059804L159.661074375,35.70121907728727L159.80711484375,29.272564988242486L159.82191843750002,23.929016547266755L160.24593234375,65.21746434120186L160.27535390625002,45.85131061308293L160.4240859375,34.86113701482241L160.47879890625,38.07552447879091L160.49893921875002,29.626747373126598L160.52859281250002,24.71213869487205L160.90253437500002,27.360359747379764L161.22491859375,37.12938589237318L161.23884046875,38.525000508202226L161.31671015625,47.829948699696715L161.37239765625,52.7182055784606L161.60906953125001,49.133075828155484L162.37305562499998,44.445668678045614L162.61469296875,47.529069648599844L163.020886875,45.40583078146948L163.03480875,47.278053278452006L163.28438156250002,50.993633557037015L163.89383484375,37.64379882471293L164.34040218750002,38.219687620023066L164.57034515625,32.104313075553875L164.5900678125,28.492275208003228L164.84604468749998,24.94545799742155L164.9427553125,23.38072062212237L165.40918453125,22.905963035810036L166.03831406249998,48.488635148756536L166.2209690625,35.74732750496435L166.27698140625,26.830493159777937L166.88592421875,22.63833327227055L167.03089734374998,19.53267498167288L167.11535671875,18.717861054372396L167.12524125000002,17.707486285943745L167.29462406250002,25.93858384309944L167.4731953125,28.652721091382137L167.89943671875,28.1239592234328L169.14706875,34.0519559936544L169.417153125,37.467961056519776L169.52467640625,38.386145286255626L169.59066609375,29.19728890210005L169.94817984375,26.601771565136993L169.96381875,23.26953894463638L170.0942203125,21.061535126730565L170.2191459375,19.46899386809156L171.07311374999998,18.906723972832477L171.14230546875,18.08633914749345L171.54891703125,17.827642866852994L171.76141124999998,17.863581371356915L171.87793734374998,18.468105274230165L172.28362078125,20.78223408281202L172.46460515625,42.66567927109835L172.59853359375,44.2832732547977L172.65422109374998,43.594117044309286L173.22910171875,40.36639461928576L173.94375796875,31.052633379542645L174.13374515625,37.45241707911718L174.342155625,28.994103888217392L174.658089375,34.0763464271687L174.887893125,26.902775202492638L175.2497690625,24.53713303226217L175.83328125,31.176179401266506L176.08387499999998,26.991417510144654L176.140119375,23.13718774058385L176.8192284375,26.122200515138893L176.84869640624999,23.805432659547215L177.05780296875002,22.033706243372343L177.46348640624998,27.363219473562488L178.12950890625,31.909871808649225L178.136701875,29.430799015975673L178.47356484375,44.46136934793988L178.58419734375002,57.16604389880299L178.77910359375,63.93868902238726L179.36382234374997,56.550152469828866L179.70950249999999,56.238154790613116L181.54830375,50.48803653586691L181.86558328125,47.862462134532834L182.33892703125,47.514161027057575L182.5706334375,34.25251743685222L182.97320765625,30.847204469984877L183.0231871875,25.465221310225775L183.22918453124998,24.705503620486066L183.26955796875,21.992728548634428L183.34158046874998,20.664649023406714L183.40933359375,21.36166553556503L183.50121796874998,20.259319153187167L183.51142734375,20.045754867766778L183.6264684375,18.590386377080982L183.6312946875,17.572134719315002L183.63607453125002,17.03702639891077L183.65064609375,16.998729007681426L183.745175625,17.3609853904487L183.9154865625,17.73526683241376L183.998925,17.651860126914087L184.07711953125,17.121342775977546L184.1793525,16.932950570676844L184.26692109375,16.700865084227406L184.31536921875,17.852384185729296L184.55306203125,17.249099281274006L184.5915328125,16.878190022255637L184.76068359375,17.40692082640269L184.86356625,16.77181336925471L184.93006640625,28.930265496528413L185.01740296875002,25.401629856083545L185.07485390625,33.19177472761495L185.10896250000002,28.378977914877073L185.12126015625,34.476924834863745L185.14163250000001,30.0994497846463L185.27203406249998,27.043101824217942L185.32512281249998,25.53903171068068L185.42252953125,22.812898976359556L185.48954015625,22.62987061903107L185.66560546875002,20.733947350056344L185.76045984375,19.914361940307234L186.00390703125,19.31368450122046L186.00882609375,20.533060294848482L186.0340246875,19.27662542251455L186.16855640625002,18.19450047628705L186.37418250000002,22.186342627385983L187.402730625,22.621863514053672L187.450250625,21.12543095175495L187.539350625,30.45086222400709L187.5628321875,32.20500816387202L187.62367078125,26.22299620081345L187.81764890625,24.663895514067185L188.24430796875,46.099489301238165L188.25822984375,54.7524636918269L188.34742265625,39.832761067269L188.56047375,30.401824670146553L188.7331978125,26.47305188674368L188.84081390625,23.73665857040071L189.0853284375,22.010945009488967L189.22315500000002,19.768010967790563L189.365158125,19.00665087236135L189.660673125,17.486356124002747L190.086496875,21.63787660164775L190.52545359375,30.850959145803095L191.11411687499998,27.71396240459612L191.11936078125,24.076482400338236L191.59205484375,21.300682759905087L191.63159296875,19.75475143755927L191.8895653125,18.23283714488419L192.30355546875,19.92762568018001L192.6727171875,18.589701453335053L192.70617609374997,17.387732729606004L192.94419374999998,19.803130802924752L193.17432234375002,18.71273996246774L193.31521171875002,24.314539614992835L193.55188359374998,21.74783711891028L193.80549375,20.910962273482387L194.076135,19.656573862197334L194.2256559375,18.284874294735392L194.3364740625,17.917523682676197L194.360698125,16.963485370494386L194.48715515625,17.114024846564195L194.5545834375,17.246764685160198L194.61611812499999,16.652367168334916L194.76545343749999,30.404263455908183L195.08199046875,25.92565743114987L195.20153296875,22.525983470835914L195.39365484375003,20.874253809308193L195.48057375,21.75737258282613L195.86667375000002,19.855762523694708L196.09735921875,19.737528124263203L196.1182884375,18.397600439316232L196.27736906250001,18.43653691764247L196.45956,17.64261610505325L197.46281671875,17.252077666266825L197.545280625,17.781108965482737L197.56569937499998,19.228276104692483L197.6825503125,18.388242533543025L197.7159628125,19.127813760482255L197.90038125,18.481920502688283L198.1315771875,30.68310307675946L198.2652271875,28.90082545384377L198.537260625,25.652431315091892L198.56835281250002,21.620811686699177L198.65768484375002,19.73576218139206L198.7140684375,19.191767443722945L198.7695703125,17.36788594383387L199.03580296875,17.0808116520547L199.08211640624998,16.972551863974548L199.10782546875,20.685031919471143L199.14007781249998,19.874884660715885L199.47304265625002,18.487561762616043L199.62135703125,18.83032637946904L199.80675,29.592921337324967L200.28942140625,25.319896524929167L200.41304765625,22.44246138297508L200.64094875,19.517989074963268L200.69157796875,18.870868281708912L200.7732065625,28.468177905670853L200.8186846875,24.816999959344894L201.0302971875,22.035497354146965L201.0971221875,19.627832264111717L201.1218103125,18.022483957771225L201.15475875,19.11277314291226L201.17383171875,17.606628920232215L201.63872953125,16.860651882168632L201.6437878125,16.85156036453065L201.65422921875,17.458152580717908L201.893360625,17.628893623626077L201.90913875,17.773433006451025L202.08975187500002,17.60117097940772L202.2498534375,17.59616495184141L202.265724375,17.561760418248422L202.29352171875,17.63883554782404L202.51979859374998,17.475506208455162L202.6389234375,17.64424017221664L202.727930625,17.68329855126699L202.77670359375,17.794831158653267L202.78751625,18.38062950726471L203.0300353125,19.140890308118603L203.08303125,17.992599423823798L203.18628515625002,21.93093684393051L203.42685515625,24.283553347813402L203.54249953125,21.145629613058144L203.68830796875002,20.684305341992616L203.93704546875,20.911032782527098L204.038443125,51.28073725374477L204.04336218749998,36.86264018244704L204.1959459375,31.381408305330055L204.2098678125,41.333797024823994L204.22499625,39.08694600053893L204.2594296875,45.62192265098255L204.35219578125,45.95016460743523L204.988843125,34.08519014934882L204.9937621875,26.696323417307045L205.07910328125,22.504859174895934L205.10068218749998,20.441844322686602L205.328536875,19.92111416960072L205.51638937500002,19.147000357534342L205.52191171875,18.87566803373447L205.53847875,18.02951214073629L205.54367625,17.74944790791588L205.76303859375,18.36162215966653L205.80925921875,18.33958666860266L205.9315396875,18.608310579652816L206.10356765625002,18.32542039167596L206.27123343749997,17.315372459004607L206.2762453125,17.746147883361743L206.4810825,16.981344041601528L206.69728921875,17.509407697543928L206.90685984375,16.59901735259617L206.93665265625,16.438304248532802L206.9461659375,16.905714131761272L206.95108499999998,16.555083058219363L207.119075625,16.97141826602293L207.17369578125002,18.026946693256324L207.1960171875,18.493510606285824L207.66021890625,43.45446982812698L208.121079375,32.597200443934284L208.27250296875,27.00747718774729L208.3706521875,36.36655696084174L208.759629375,30.168485041678398L208.78362140625,25.326860258710646L208.82664,37.09851575239434L209.26137375,29.67551100172959L209.38258687500002,25.38520412301041L209.78228390625,22.27359612950693L210.00122859375,22.34465250497467L210.00679734374998,22.249364287408643L210.40765453125002,20.845117267818708L210.46584796875,20.34632490018099L210.88536046875,19.24183938133173L210.95561953125,19.541526152297568L211.11293671875,20.122022991183236L211.1179021875,19.55050635910202L211.34329734374998,18.078523221589144L211.46511375,17.722448230133672L211.4952778125,17.84956523629796L211.59579374999998,17.465763998346176L211.62554015625,17.16467083186902L211.72758750000003,17.14534485751986L211.757101875,18.66332895430683L212.08746796875,17.696542271570912L212.48614406250002,18.04172306954656L212.64963328124998,19.538298802970612L212.68564453124998,18.521713328718395L213.13745578125003,18.47322848246053L214.01332734375,18.527354798826895L214.1540775,19.296633330651137L214.22869874999998,18.93523255423784L214.37770921875003,21.136172224498274L214.41251390624998,20.196441219220453L214.4827265625,21.096806595545956L214.5089925,20.6238698917758L214.5465815625,20.056931096442433L214.55177906249997,19.80721104891772L214.62329109375,19.15858612794682L214.78019062500002,18.011933766001494L215.2176159375,17.241226124163877L215.241654375,34.9433792749622L215.43062062500002,28.89642214200369L215.47373203125002,25.800141828903385L215.642975625,23.101577727346925L215.65286015625,21.062362705438915L215.87087671875,21.20724684689617L216.3799996875,19.48201910575733L216.38997703125,19.414845809462708L216.47773125,20.01900807924449L217.0317290625,18.443057542248855L217.0759078125,18.615407401325868L217.13498296875,18.420669977904883L217.40488171875,18.183349984789817L217.41546234375002,19.774043377104363L217.47231000000002,20.22123595515667L217.47736828125,19.17328685355055L217.50660421875,18.041673291634712L217.990018125,19.831566978520883L218.00547140625,20.061593248025613L218.0106225,19.044502785668392L218.92932703124998,17.76364926509001L218.96213625,34.58713598544562L218.97605812499998,46.37182163032987L219.09666796875,34.70965317412079L219.17741484375,28.588278743766896L219.2263734375,23.35405756303259L219.28201453125,22.28944376175754L219.30684187499998,19.530603802830875L219.3325509375,17.718139945883106L219.38823843749998,32.06764036096248L219.42137250000002,25.22957891414828L219.60161437500003,21.818493999184764L219.66746484375,20.857658754552364L219.83025796875,22.473513648727515L219.83977125,19.261709477078305L219.88729125,18.451896261198154L220.120621875,19.598323959721807L220.2397003125,18.01527970755917L220.4379478125,17.161099488048684L220.54148015625,18.8612223454171L220.67591906250001,17.840547044030032L220.77954421874998,17.067642435402394L220.8517059375,18.798637821776122L221.02939546875,18.313832114757556L221.66386171875,18.17007507909624L221.947171875,19.315706935580295L222.3123890625,18.274723019990756L222.41550375,18.212934657331367L222.47453249999998,17.555932211635145L222.59337890625,16.54374994740345L222.9288496875,17.959025336178886L223.00012968750002,17.790452723069627L223.21540828125,17.77893133995749L223.33657499999998,18.313101968037007L223.39342265624998,17.553098424474552L223.86611671875,18.863172027707197L223.92147937500002,18.00164100959305L224.43612468749998,17.48057666203025L224.7578128125,18.193460972193744L224.9705390625,19.14960958807701L224.98125890625002,19.171327001625492L225.14057156249999,20.440418439134476L225.3462440625,18.557565791263887L225.61869515625,18.840962990078165L225.89137828124998,17.762120411844744L225.9019125,17.392118736059484L225.95101031250002,17.729381661862742L226.10558953125002,17.997721450120572L226.21046765625,17.301862316483465L226.2264778125,17.53571364233149L226.30379062499998,19.856742707188452L226.62441140625,20.6216510472867L227.13432328125,18.51799196351605L227.378559375,18.03468050830984L227.39967421875,17.41673345299616L227.73291749999999,16.896979326558423L228.00462609375,17.755850483508304L228.17210625,17.53640144153321L228.29169515625,17.534590803884758L228.33373921875,17.216489254059358L228.69111375,17.857384641302822L229.03558734375,17.498060576041446L229.2031603125,18.695433132123895L229.28562421875,18.285693679017992L229.3158346875,17.865888413526513L229.51723781249999,18.52194724794501L229.67794265625002,19.064900640942295L229.75432734375,18.475795014081978L229.931274375,17.71990889321481L230.15161125,18.096337502066593L230.63070937499998,18.105419902363L231.085490625,17.328547221874334L231.24280781250002,17.625676695856537L231.313809375,18.669998775692633L231.34550484374998,19.61727758572808L231.351305625,20.360904202498855L231.36188625,20.40158256056183L231.8152753125,23.082277859701353L232.13506078125,21.074965798767582L232.766510625,20.998764505810833L232.86317484375,20.645786573664747L233.15094000000002,19.428200879440553L233.16138140625,18.858736315933378L233.3106703125,18.49447344086618L233.49077296875,18.645967954290192L233.66600296875,19.406881881888083L233.82721828125,18.83902950449908L234.15865171874998,43.60061061956957L234.30251109375,35.33114646207378L234.33044765625,28.150646731919547L234.50563125,27.261604675809426L234.69390140625,24.16966977570051L234.78908062500003,21.630263771853404L234.89029265625,21.873639830494835L235.14891468750002,20.977031592693876L235.4318071875,19.968335128406846L235.68769125,19.463070016253106L235.76398312499998,19.40807717820888L235.85220140625,20.44946737015776L235.9672425,19.883224581030195L236.01587625,19.712753252951615L236.1123084375,18.84189273546237L236.12864343750002,18.79071697825252L236.4757621875,20.095243930542825L236.4850434375,30.557800197437043L236.56295953125002,26.021320232292794L237.08632921875,23.30957242807195L237.1740834375,22.057565722468176L237.24675562500002,20.46763325214544L237.30666609375,19.285282839776063L237.75880218749998,27.84335637989104L237.84831984375,22.90856257976566L237.89834578125,21.341265561470255L237.9293915625,20.66066569369367L238.24732078125,20.414666055925668L238.468910625,19.82257307868479L239.35522359375,18.81161704362201L239.607163125,19.50624297702769L239.87339578125,19.83320999672688L239.88393,19.45554327708885L240.10273546875,20.737551170721105L240.10802578125,19.85135649283793L240.11433703125,20.387734054088977L240.204504375,20.85577680788062L240.28251328125,20.915000005016477L240.29365078125002,20.292505580097284L240.8453746875,62.00602684659355L241.90766015625002,65.52268703080767L242.10256640625,63.45891208420728L242.22600703125,57.31951398331245L242.94623203125002,54.417169586886885L243.0056784375,40.2049683475911L243.06382546875,40.43567706873534L243.09185484374999,31.598189390960417L243.0971915625,25.612392951287696L243.6407015625,32.3795999858605L243.90359296875002,27.75643832861345L244.35605390625,49.23504022800305L244.75978828125,48.196058728476636L245.76805687499998,46.85253510891214L245.87298140625,39.22117848264466L245.94686015625,33.63861008183532L246.33249609375,29.01032263479454L246.492736875,33.422643669377706L246.7352559375,28.37727480025944L246.75237984375,25.411884373258687L246.93995390625,23.248079697746725L247.01907656249998,21.63414293125789L247.06088859374998,22.31652679726794L247.14377015625,21.562459489615645L247.16655562500003,21.728793938703447L247.52741062500002,20.33742038330266L247.64300859374998,20.23278877020375L247.659946875,20.490834455969914L247.7851509375,20.618628153135173L248.02906218750002,27.76674686868773L248.3357146875,24.66682688403002L248.61164624999998,25.177463851975634L248.91370453124998,24.064642877225413L248.926651875,23.786510450151173L249.1441115625,24.889745625559435L249.24574125,22.648366555633523L249.37823109375,20.69086404959105L250.09938421875,20.18312124347532L251.11182937499999,19.02125199565796L251.11744453125002,19.13050999408667L251.275550625,19.268188457999877L251.32984593749998,20.24664332229747L251.53988062500002,19.186658265107L251.8883915625,19.73438443965502L252.27732234375,19.22806742374173L252.3556096875,19.725602203512633L252.40702781250002,20.31014379281071L252.951001875,24.191491549123914L253.16029406250001,22.088852029388907L253.4151571875,23.048283957806667L253.80334546875,20.691324599842716L255.00860859374998,19.05350877205163L255.2305696875,19.30398418473974" style="fill: none;" fill="none"></path></g></g></g></g><g opacity="0.2"><g><g><g><path stroke="rgb(255, 112, 67)" stroke-width="2px" d="M23.843484843749998,226.96568801879886L24.20545359375,156.88176612854005L24.52565671875,229.06929153442383L25.416656718749998,171.25404945373535L25.54195359375,211.1420457458496L26.405109843749997,163.94761390686034L26.47471921875,205.84336212158206L26.76707859375,176.19436317443848L27.01767234375,171.10952934265137L27.504937968750003,182.54935890197754L29.07810984375,191.2750678253174L29.62106296875,162.48474952697754L29.81596921875,183.50968437194823L30.679125468749998,169.43177536010742L31.05501609375,162.4240894317627L31.27776609375,183.0900466918945L31.37521921875,190.42249099731444L32.04346921875,172.24127494812012L32.22445359375,169.5023609161377L32.41935984375,183.8961696624756L32.55857859375,158.92407485961914L33.15721921875,168.82386451721192L33.26859421875,137.76034561157226L33.95076609375,165.39528625488282L34.14567234375,161.162286529541L34.17351609375,196.60398696899415L34.38234421875,210.8123043823242L34.46587546875,170.486615524292L34.855687968750004,140.98050270080566L36.37317234375,163.6705517578125L36.735141093749995,186.02179824829102L36.74906296875,144.95630470275879L36.83259421875,198.52733871459964L37.20848484375,203.85136940002442L37.333781718750004,164.09413261413573L38.015953593750005,176.4853614807129L38.05771921875,200.55743980407715L38.433609843750006,166.1892691040039L38.586750468750004,160.05441604614256L39.38029734375,144.08070350646972L39.64481296875,191.38688117980956L40.77248484375,144.50639099121094L41.53818796875,150.58937507629395L41.57995359375,149.89067665100097L41.77485984375,154.81138252258302L41.83054734375,163.14007301330565L42.49879734375,166.18605514526368L42.59625046875,170.22138290405275L42.90253171875,127.62477561950683L43.069594218750005,143.2327045440674L43.20881296875,181.96345962524416L43.62646921875,119.78659194946289L43.77960984375,122.80204147338867L43.974516093750005,163.99397323608397L44.42001609375,161.67818092346192L44.823750468750006,127.11761833190918L45.046500468750004,176.1644652557373L45.26925046875,131.9062142944336L45.32493796875,143.80727394104005L45.56160984375,139.74179168701173L46.04887546875,162.85804138183593L46.75889109375,145.74895065307618L47.00948484375,156.349761428833L47.134781718750006,160.8962841796875L47.32968796875,165.49396018981935L47.35753171875,156.64490547180176L47.39929734375,146.8562809753418L48.01185984375,151.52617652893068L48.63834421875,100.6078468322754L48.88893796875001,121.96160476684572L49.014234843749996,154.55407676696777L49.19521921875,96.22865249633789L49.23698484375,136.08253761291505L49.348359843749996,183.2344047546387L49.90523484375,119.07368728637695L50.14190671874999,128.28217872619626L50.32289109375,171.36845558166505L51.07467234375,120.75240005493166L51.56193796875,126.95669082641602L52.13273484375,104.82053649902343L52.39725046875,124.70505615234374L53.664141093750004,122.67118743896485L53.83120359375,104.67981101989746L53.99826609375,118.98285919189453L54.27670359375,120.88947944641113L54.34631296875,151.42651679992676L54.36023484375001,132.67742935180667L54.638672343749995,119.3498176574707L54.708281718749994,112.47752311706543L55.33476609375,100.74361633300781L55.50182859375,102.90145202636718L55.989094218750004,102.39391662597656L56.476359843750004,110.97946723937987L56.49028171875,126.96933059692383L56.51812546875,127.64454551696777L57.13068796875,118.46356178283692L57.367359843749995,109.91591697692871L57.395203593750004,128.33726165771483L57.46481296875,126.71199783325194L57.812859843750005,133.8636367034912L57.82678171875,101.22396812438966L57.96395859375,105.66474082946777L57.991802343749995,133.8776538848877L58.06141171875,123.09836036682127L58.4645428125,116.0814646911621L58.6733709375,101.95079544067383L58.756902187499996,105.6048639678955L60.590413125000005,107.53689880371094L61.35611625,101.95137611389161L61.551022499999995,83.00275314331054L62.038288124999994,121.80233825683595L63.525376406250004,102.57510017395019L64.51345828125001,84.89798950195312L65.12356125,98.29291877746583L65.499451875,124.70046478271485L65.5412175,105.07711303710937L66.33898734375,104.15603027343751L67.1917021875,105.22303756713866L67.65729609375,108.11090103149415L68.12952609375,95.77050132751465L68.3196525,86.87704536437988L68.34749624999999,113.52843360900879L68.361418125,88.37296085357666L69.15343359375001,87.79308437347412L70.10819578125,75.73047603607176L70.5505865625,71.04559776306152L70.81487015625,75.41741889953613L71.05492968749999,74.01645698547362L71.47662328125,74.75033340454102L73.04464406250001,74.72599239349366L73.26122203125,58.2445351409912L73.28906578125,86.1403398513794L73.92905437499999,106.53873504638673L74.673781875,106.95097251892089L74.84585625000001,83.48383415222168L75.46032140625,45.871172103881825L75.7194075,72.12492073059082L75.77384203125,81.60285804748536L75.80168578125,114.22780723571778L76.34431406249999,72.90437324523927L77.14384734375,72.23595085144042L77.51138484375,87.29076152801514L77.8711725,77.99316375732421L78.51700828125,65.49456436157227L79.2948234375,83.38430271148682L79.44531890625001,103.29778175354004L80.32569187499999,64.63992141723632L80.515029375,70.9041700744629L80.58807281249999,72.8897956466675L80.90377453125,78.31019107818602L80.96753671875,48.90397430419922L81.3422671875,43.235057487487786L81.79440328125,82.11883346557616L81.949539375,91.96113647460939L81.97492359375,57.23181404113769L82.8799846875,73.20250167846679L83.2852040625,72.42774856567382L83.9967975,63.44814365386962L84.195045,49.07538093566894L84.4200225,63.42586875915527L85.5492721875,39.19862239837646L85.906321875,39.03967323303222L85.9510575,45.18113651275634L86.0538009375,60.35628833770751L86.8547728125,58.894625816345204L87.26959828125,74.21053012847901L87.39907171875,73.49554584503174L87.41981531249999,29.682266120910636L87.8599321875,78.35652339935302L88.01033484375,53.08243801116944L88.45184390624999,57.25008499145509L89.10403734375,64.38329761505126L89.205991875,69.99277645111084L89.233464375,49.38047744750977L90.04483124999999,59.66542900085448L90.06826640624999,68.70460693359374L90.622310625,63.04855945587158L90.9266428125,71.76252662658692L91.68028031249999,57.773035240173336L92.21882484375,60.87713871002198L93.23335828124999,58.35573406219482L93.42023624999999,40.692843132019036L93.5784815625,81.47240913391113L94.23322734375,50.47159618377685L94.4713378125,48.90144229888916L95.27838890625,34.052855014801025L95.3021953125,66.44083213806152L95.63994000000001,59.95159286499023L96.058895625,55.39492858886718L96.807706875,45.649489974975594L96.84859078125,58.19103218078613L97.00720734375,48.806063346862786L97.36323609374999,30.12548183441162L97.39154390624999,68.49829238891601L98.156458125,40.525001564025885L98.2915003125,39.95926380157471L98.31242953124999,38.67058113098145L98.5716084375,45.65742359161378L98.58771140625001,45.77772422790527L98.646879375,42.86868644714355L98.96861390625,53.475263442993175L99.16198874999999,29.46893960952759L99.3853884375,38.723678970336906L99.48223828124999,55.68664260864257L99.73227515625,62.60944896697998L99.92504671875,31.065676174163816L99.98630296875,59.73309093475342L101.0567559375,50.77657791137695L101.1449278125,25.297197532653804L101.62769203124999,32.65208890914917L101.8137346875,32.369858093261726L101.935783125,32.946446342468256L101.98845421875001,52.26042079925537L102.1202015625,44.835203819274895L102.6304846875,54.425710716247565L102.849800625,55.876752319335935L102.89732062499999,35.46422515869141L103.1155228125,36.580461387634266L103.3003125,42.226077003479L103.407789375,32.73696847915649L103.63708265625,37.95365226745604L104.467336875,61.42769794464112L104.7204365625,46.37541252136231L105.19108875,31.780697593688966L105.26083734375,34.674084205627445L105.40126265625,30.63916494369507L105.8562759375,33.617204933166505L105.93419203125,47.512269401550284L106.18204781249999,28.13512310028077L106.2082209375,51.308157234191896L106.29439734374999,44.384682426452635L106.47974390625,41.073190841674794L106.50823734375001,53.94045021057129L107.2334278125,53.68835700988769L107.28419625,34.22571670532228L107.38707890625,29.415045032501222L108.05217328124999,37.27464946746827L108.25366921875,36.42459789276122L108.43047703124999,27.505193939208983L109.06703156249999,26.363819961547843L109.1227190625,30.60288299560546L109.41006656249999,33.84214490890503L109.82665546875,50.492014274597175L110.03460187499999,28.5795811843872L110.46037921875,35.484386672973635L110.57876156249999,36.55918579101563L110.64702515625,28.430922088623053L110.6541253125,38.26821510314941L110.77292531249999,24.979700946807853L110.98509468750001,50.181347351074216L111.12245718749999,21.099733657836918L111.39987375000001,32.22837976455689L111.47389171875,47.25894058227538L111.567121875,36.49762092590333L111.586055625,25.756239967346197L111.69348609375,36.77536502838134L111.92426437499999,31.40898233413697L112.5726525,32.12507732391358L112.80918515625001,28.170588054656985L112.9430671875,27.289541358947762L113.12864578125,31.26215641021728L113.16628125,31.398857688903817L113.60560921874999,31.42989332199097L113.7299315625,32.18724987030029L113.78018953125,32.34568250656127L113.84283796875,30.387007598876945L114.06419578124999,24.615004405975352L114.48064546875,25.065282726287833L114.6743915625,21.63346012115479L115.060955625,27.328503856658937L115.28328796874999,31.51096138000489L115.34751421875,30.058731422424326L115.4258015625,29.999462242126473L115.52627109375,35.47682441711425L116.227423125,32.79820249557495L116.25076546875,20.715571060180654L116.448316875,29.524663982391363L116.4860915625,35.75164489746094L116.89906078125,24.226601543426508L117.167056875,23.941595649719247L117.20181515624999,19.336637592315682L117.341544375,38.88724651336669L117.37008421875001,22.065305442810057L117.42224484375,26.04308916091919L117.9638521875,22.367144107818604L117.9889115625,22.568171825408943L118.15852640625,24.697318210601797L118.21899375000001,38.99523147583009L118.56708703125,26.745572090148926L118.77164578125,28.824328193664552L118.96386046875,34.99580417633057L118.96952203125,25.92250494003296L119.028875625,25.396114540100093L119.29121015624999,34.96008602142333L119.319564375,29.24264585494996L120.04197046875001,24.829468631744376L120.0597440625,30.883040943145755L120.179750625,29.946067314147946L120.39790640625,38.041604003906244L120.4361915625,24.448894729614256L120.534665625,27.919406375885007L120.54566390625,24.626469326019283L120.56237015625,30.678235473632807L120.68483625,26.36211507797241L120.7244671875,24.162477664947506L120.8551471875,26.221173534393312L120.95348203125,29.95377136230469L121.05645750000001,23.49341382980346L121.09984734375,22.962850685119637L121.156880625,29.745326557159427L121.427893125,25.592645416259767L121.47777984375,26.302461032867424L122.55356953125,24.053253707885748L122.60610140624999,19.45173580169678L122.8369725,49.85332775115967L123.1726753125,27.03422407150269L123.24038203125,37.28811973571777L123.47621859375,57.60524768829345L123.64448765625,30.435406036376957L123.929375625,24.066021766662605L123.94770609375,21.10187404632568L124.05852421875001,23.79468870162964L124.09745906250001,24.227411785125735L124.249764375,21.067165317535395L124.6975846875,19.444865627288813L124.77369093749999,23.9304852104187L124.82408812499999,54.129931983947756L124.89550734375001,22.320862426757802L125.03259140625,21.046885643005364L125.2650403125,22.436652717590338L125.44133765625,29.108716278076173L125.581066875,24.69999538421632L125.68051546874999,20.155964126586912L126.0799340625,20.719372444152828L126.50817093750001,20.558414554595956L126.54320765625,53.201820373535156L126.83180812500001,26.908889808654788L127.01144671875,59.41197189331056L127.4589421875,26.59856386184692L127.93771546875,19.533512821197508L127.96625531250001,20.637315216064447L127.98894796875,24.006094264984135L128.12788828125,19.98896993637084L128.51064703125,44.729116172790526L128.61046687500001,22.923061065673824L128.74690125,20.963137035369865L128.83864640625,25.973897895812986L129.21574359375,29.95355529785156L129.3508321875,21.220594711303715L129.38809640624999,23.339778499603277L129.98757234375,22.77848693847656L130.01207484374999,20.6525916481018L130.1417803125,20.725685577392575L130.454465625,23.55326030731201L130.51595390625002,21.734382476806648L130.53702234375,25.01324832916259L130.68774984375,19.8153992843628L130.8800109375,22.894371757507326L130.885115625,20.945139541625966L131.153158125,17.45803144454956L131.240030625,21.18370845794678L131.31613687499998,17.54759691238403L131.4084853125,19.660768032073975L131.49600750000002,18.571722164154043L131.7012159375,20.09118192672729L131.93960484375,18.653559951782228L131.9447559375,21.459139995574947L132.05863687500002,20.01002946853637L132.09562265625,28.672404499053954L132.2402709375,24.285958499908446L132.29271,20.79432992935181L132.31865109375,31.019843502044672L132.37698375,30.117744026184088L132.42417890625,20.98490215301514L132.4977328125,19.97729907989503L132.6931959375,21.107380313873286L132.70911328125,20.897240753173836L132.88360078125,19.683427791595456L132.90466921875,18.277776603698722L133.02597515625,20.421939468383798L133.056556875,21.7992760848999L133.06699828125,23.025040111541745L133.29151171875,36.46244293212891L133.32367125,28.572592849731453L133.40260828125,20.777041397094724L133.42803890625,19.56608116149903L133.85794640625,21.301807937622076L134.0543840625,41.93428871154785L134.16858984375,36.15708984374999L134.66903484375,30.419515171051028L134.96306484375,45.44863780975343L134.99090859375,61.83331844329834L135.00483046875,51.677762489318845L135.82232296875,48.15550003051759L135.98938546875,62.97002677917481L137.5380084375,23.847553596496592L138.03191015625,50.56635395050048L138.28152937500002,36.24641899108887L138.68303625000001,53.22342006683349L138.79714921875,41.60113758087158L139.01924953125,54.01061714172362L139.10848875,16.049689579010014L139.20570984375001,30.538080539703376L139.49741953125,23.429016494750968L139.837809375,38.21879711151122L139.95642375,51.96882156372071L140.16641203125,17.63683153152466L140.26349390625,18.456789379119865L140.27565234375,18.01074457168579L140.75224453125,17.619482231140132L141.20173546875,18.831792869567874L141.4398459375,18.2486517906189L141.883025625,23.83302326202392L142.01505140625,18.21576948165893L142.0421990625,15.925280342102052L142.11965109375,21.669725189208986L142.21909968749998,17.501433391571048L142.2673621875,16.920506973266605L142.38606937499998,19.500488719940183L142.45785984375001,18.799545249938962L143.208759375,58.46377979278565L143.41698421875,18.021446514129643L143.45021109375,24.866665477752694L143.55462515625,19.218926353454584L143.7564459375,19.06601011276246L143.813154375,14.858067111969L144.33991171875002,35.27393314361572L144.35652515625,19.37125854492188L144.47954812499998,18.68202644348145L145.11619546875002,44.54602180480958L145.24149234375,42.90367538452149L145.47681843750001,16.839428787231437L145.60726640625,18.342866020202642L145.86820874999998,116.57553657531737L146.3672615625,17.368010215759274L146.89420453125,18.45280231475829L147.1597875,20.04588941574097L147.36870843749998,38.16220172882081L147.7360603125,20.246451244354258L147.82692375000002,19.609533748626706L148.00452046874997,18.231241722106937L148.17056203125,18.965904750823977L148.31024484374998,18.374938087463384L148.33725328125,17.265858993530284L148.4059809375,18.075958900451656L148.5104878125,19.43912641525268L148.74757734375,19.27735828399658L148.85844187499998,18.05645908355712L149.194051875,19.300747261047373L149.30848968749999,37.97300354003905L149.48868515625003,20.130937786102294L149.5650234375,18.193335914611808L149.6348184375,18.912729263305664L149.73408140625,21.10894002914428L149.82178921874998,19.747966918945306L149.84476031249997,19.301388702392575L149.94184218750001,20.05876213073731L150.1584665625,19.170338859558104L150.30910125,16.822197647094725L150.3702646875,16.170543880462645L150.3752765625,16.447052364349357L150.39583453125002,18.51392154693604L150.55621453125002,14.766783256530763L150.98774625,21.01449285507203L151.20947531250002,17.466663894653326L151.53288046875,20.201175613403315L151.555573125,22.29894201278686L151.684396875,18.08234968185424L151.9532746875,17.27176700592042L152.1299896875,21.275940971374517L152.35125468750002,20.662891845703122L152.6683021875,29.845171966552737L152.85109640625,51.7713656616211L152.96247140625,49.829506645202635L153.030178125,51.5456053161621L153.5192071875,18.105715026855467L153.53679515624998,17.687488517761228L153.92554031249998,17.264738159179693L154.05668437499997,16.201447849273674L154.09988859375,15.88320854187012L154.21432640625002,17.689358825683602L154.408815,15.84993461608887L154.58436984374998,17.54287050247192L154.70024625,19.18454509735108L154.78099312499998,16.044642448425293L155.09377125,20.940213947296144L155.19321984375,16.34591394424439L155.2076521875,16.176185188293463L155.25582187499998,24.28736291885377L155.28482578125,16.580421524047857L155.39336999999998,19.202306270599365L155.79603703125002,19.08292053222656L156.87164109375,19.992484359741212L156.91349953125,19.012206687927236L157.05225421875,22.413037548065187L157.3705546875,26.617834110260013L157.38016078125,36.30549236297607L157.412413125,21.657922668457026L157.46053640625,23.757488479614256L157.61817843749998,22.719211006164542L157.72551609375,27.6538597869873L157.78473046874998,23.29747375488282L158.417386875,22.07251996994018L159.01254703125002,17.956681194305414L159.32708859374998,19.156193389892568L159.661074375,58.55597179412841L159.80711484375,19.629583854675296L159.82191843750002,15.913693885803221L160.24593234375,127.1501360321045L160.27535390625002,16.80208002090455L160.4240859375,18.375876617431636L160.47879890625,42.89710567474365L160.49893921875002,16.95358171463012L160.52859281250002,17.34022567749023L160.90253437500002,31.332691326141347L161.22491859375,51.78292510986328L161.23884046875,40.618422431945795L161.31671015625,61.787370986938484L161.37239765625,60.05059089660644L161.60906953125001,43.75538120269776L162.37305562499998,37.41455795288086L162.61469296875,52.154171104431164L163.020886875,42.22097248077392L163.03480875,50.08638702392579L163.28438156250002,56.56700397491455L163.89383484375,17.61904672622681L164.34040218750002,39.083520812988276L164.57034515625,22.931251258850097L164.5900678125,23.074218406677236L164.84604468749998,19.62523218154907L164.9427553125,21.03361455917358L165.40918453125,22.19382665634155L166.03831406249998,86.86264331817628L166.2209690625,16.63536603927613L166.27698140625,13.455241641998288L166.88592421875,16.350093441009527L167.03089734374998,14.874187545776373L167.11535671875,17.495640163421623L167.12524125000002,16.191924133300784L167.29462406250002,38.28523017883301L167.4731953125,32.72392696380615L167.89943671875,27.330816421508782L169.14706875,42.94395114898682L169.417153125,42.59196865081788L169.52467640625,39.76342163085938L169.59066609375,15.4140043258667L169.94817984375,22.708495559692377L169.96381875,18.271190013885505L170.0942203125,17.74952939987183L170.2191459375,17.080181980133048L171.07311374999998,18.063319129943842L171.14230546875,16.855761909484855L171.54891703125,17.439598445892326L171.76141124999998,17.9174891281128L171.87793734374998,19.374891128540046L172.28362078125,24.253427295684816L172.46460515625,75.49084705352783L172.59853359375,46.70966423034667L172.65422109374998,42.56038272857665L173.22910171875,35.524810981750484L173.94375796875,17.081991519927985L174.13374515625,47.05209262847901L174.342155625,16.30663410186767L174.658089375,41.69971023559571L174.887893125,16.142418365478512L175.2497690625,20.988669776916495L175.83328125,41.13474895477295L176.08387499999998,20.714274673461915L176.140119375,17.35584308624268L176.8192284375,30.59971967697143L176.84869640624999,20.330280876159676L177.05780296875002,19.376116619110118L177.46348640624998,35.357489318847655L178.12950890625,38.7298503112793L178.136701875,25.712189826965325L178.47356484375,67.00722484588623L178.58419734375002,76.22305572509765L178.77910359375,74.09765670776368L179.36382234374997,45.467347640991214L179.70950249999999,55.77015827178955L181.54830375,41.86285915374755L181.86558328125,43.92410053253173L182.33892703125,46.99170936584472L182.5706334375,14.360052051544185L182.97320765625,25.739235019683846L183.0231871875,17.392246570587165L183.22918453124998,23.56592708587647L183.26955796875,17.92356594085694L183.34158046874998,18.67252973556519L183.40933359375,22.407190303802487L183.50121796874998,18.605799579620353L183.51142734375,19.725408439636222L183.6264684375,16.407333641052247L183.6312946875,16.044757232666026L183.63607453125002,16.234363918304435L183.65064609375,16.9412829208374L183.745175625,17.9043699645996L183.9154865625,18.296688995361325L183.998925,17.526750068664548L184.07711953125,16.32556674957275L184.1793525,16.65036226272583L184.26692109375,16.352736854553214L184.31536921875,19.57966283798218L184.55306203125,16.34417192459106L184.5915328125,16.32182613372802L184.76068359375,18.200017032623297L184.86356625,15.81915218353272L184.93006640625,47.167943687438964L185.01740296875002,20.108676395416257L185.07485390625,44.876992034912114L185.10896250000002,21.159782695770268L185.12126015625,43.62384521484376L185.14163250000001,23.533237209320067L185.27203406249998,22.45857988357545L185.32512281249998,23.282926540374753L185.42252953125,18.723699874877934L185.48954015625,22.35532808303833L185.66560546875002,17.890062446594246L185.76045984375,18.684983825683602L186.00390703125,18.41266834259034L186.00882609375,22.36212398529053L186.0340246875,17.39197311401368L186.16855640625002,16.571313056945794L186.37418250000002,28.174105854034423L187.402730625,23.275144844055177L187.450250625,18.88078210830688L187.539350625,44.43900913238525L187.5628321875,34.83622707366943L187.62367078125,17.24997825622558L187.81764890625,22.32524448394776L188.24430796875,78.25287998199462L188.25822984375,67.73192527770996L188.34742265625,17.453207130432137L188.56047375,16.2554200744629L188.7331978125,20.57989271163941L188.84081390625,19.632068595886228L189.0853284375,19.422374668121332L189.22315500000002,16.403609905242913L189.365158125,17.864610729217535L189.660673125,15.205914001464842L190.086496875,27.86515731811523L190.52545359375,44.67058296203613L191.11411687499998,23.008467292785653L191.11936078125,18.620262393951418L191.59205484375,17.136983299255363L191.63159296875,17.43585445404053L191.8895653125,15.94996570587158L192.30355546875,22.46980848312377L192.6727171875,16.58281511306762L192.70617609374997,15.584779644012443L192.94419374999998,23.426227912902842L193.17432234375002,17.07715370178223L193.31521171875002,32.71723909378051L193.55188359374998,17.897783374786385L193.80549375,19.655650005340586L194.076135,17.774991245269774L194.2256559375,16.227324943542477L194.3364740625,17.366497764587404L194.360698125,15.53242790222169L194.48715515625,17.339834060668952L194.5545834375,17.445874443054198L194.61611812499999,15.760770893096932L194.76545343749999,51.03210788726807L195.08199046875,19.207748394012448L195.20153296875,17.426472530365L195.39365484375003,18.396659317016596L195.48057375,23.08205074310302L195.86667375000002,17.00334743499756L196.09735921875,19.56017652511596L196.1182884375,16.387708911895754L196.27736906250001,18.49494163513183L196.45956,16.451734886169444L197.46281671875,16.666270008087157L197.545280625,18.574655914306632L197.56569937499998,21.399026813507074L197.6825503125,17.128192176818846L197.7159628125,20.237170600891105L197.90038125,17.513080615997318L198.1315771875,48.98487693786622L198.2652271875,26.227409019470205L198.537260625,20.77984010696412L198.56835281250002,15.573382244110116L198.65768484375002,16.908187923431402L198.7140684375,18.37577533721924L198.7695703125,14.63206369400025L199.03580296875,16.650200214385993L199.08211640624998,16.810162181854256L199.10782546875,26.253752002716066L199.14007781249998,18.659663772583016L199.47304265625002,16.406577415466312L199.62135703125,19.34447330474853L199.80675,45.73681377410889L200.28942140625,18.910359306335444L200.41304765625,18.126308670043944L200.64094875,15.131280612945552L200.69157796875,17.900187091827398L200.7732065625,42.864142341613764L200.8186846875,19.340233039855953L201.0302971875,17.863243446350108L201.0971221875,16.016334629058846L201.1218103125,15.614461498260503L201.15475875,20.748206920623783L201.17383171875,15.347412586212158L201.63872953125,15.74168632507324L201.6437878125,16.837923088073733L201.65422921875,18.36804090499879L201.893360625,17.885005187988277L201.90913875,17.990242080688482L202.08975187500002,17.342777938842772L202.2498534375,17.58865591049194L202.265724375,17.510153617858894L202.29352171875,17.754448242187504L202.51979859374998,17.23051219940186L202.6389234375,17.897341117858897L202.727930625,17.741886119842526L202.77670359375,17.962130069732666L202.78751625,19.259327030181893L203.0300353125,20.281281509399417L203.08303125,16.270163097381594L203.18628515625002,27.838442974090572L203.42685515625,27.812478103637698L203.54249953125,16.438744010925287L203.68830796875002,19.99231893539429L203.93704546875,21.25112394332886L204.038443125,96.83529396057129L204.04336218749998,15.235494575500486L204.1959459375,23.159560489654545L204.2098678125,56.26238010406494L204.22499625,35.71666946411132L204.2594296875,55.42438762664794L204.35219578125,46.442527542114256L204.988843125,16.28772846221923L204.9937621875,15.613023319244387L205.07910328125,16.217662811279297L205.10068218749998,17.347322044372564L205.328536875,19.140018939971924L205.51638937500002,17.98582963943482L205.52191171875,18.468669548034658L205.53847875,16.76027830123902L205.54367625,17.329351558685293L205.76303859375,19.279883537292474L205.80925921875,18.306533432006844L205.9315396875,19.01139644622803L206.10356765625002,17.901085109710692L206.27123343749997,15.800300559997556L206.2762453125,18.392311019897456L206.4810825,15.834138278961172L206.69728921875,18.30150318145752L206.90685984375,15.233431835174562L206.93665265625,16.19723459243774L206.9461659375,17.606828956604005L206.95108499999998,16.029136447906495L207.119075625,17.595921077728274L207.17369578125002,19.61023933410645L207.1960171875,19.193356475830075L207.66021890625,80.89590866088868L208.121079375,16.311296367645255L208.27250296875,18.62289230346679L208.3706521875,50.405176620483395L208.759629375,20.871377162933346L208.78362140625,18.064423084259033L208.82664,54.75599899291991L209.26137375,18.541003875732418L209.38258687500002,18.949743804931646L209.78228390625,17.6061841392517L210.00122859375,22.45123706817628L210.00679734374998,22.10643196105957L210.40765453125002,18.738746738433846L210.46584796875,19.59813634872436L210.88536046875,17.58511110305786L210.95561953125,19.991056308746348L211.11293671875,20.992768249511716L211.1179021875,18.69323141098023L211.34329734374998,15.870548515319827L211.46511375,17.188335742950446L211.4952778125,18.04024074554443L211.59579374999998,16.89006214141846L211.62554015625,16.71303108215332L211.72758750000003,17.116355895996094L211.757101875,20.940305099487315L212.08746796875,16.246362247467044L212.48614406250002,18.55949426651001L212.64963328124998,21.783162403106694L212.68564453124998,16.99683511734008L213.13745578125003,18.400501213073728L214.01332734375,18.60854427337646L214.1540775,20.45055112838746L214.22869874999998,18.39313138961791L214.37770921875003,24.43758172988891L214.41251390624998,18.786844711303708L214.4827265625,22.44735466003419L214.5089925,19.914464836120597L214.5465815625,19.20652290344238L214.55177906249997,19.432630977630613L214.62329109375,18.185648746490482L214.78019062500002,16.291955223083495L215.2176159375,16.08516466140748L215.241654375,61.49660900115967L215.43062062500002,19.825986442565924L215.47373203125002,21.155721359252926L215.642975625,19.053731575012197L215.65286015625,18.003540172576894L215.87087671875,21.42457305908204L216.3799996875,16.894177494049078L216.38997703125,19.314085865020743L216.47773125,20.925251483917236L217.0317290625,16.07913173675536L217.0759078125,18.87393218994141L217.13498296875,18.128563842773435L217.40488171875,17.82736999511719L217.41546234375002,22.160083465576168L217.47231000000002,20.89202482223511L217.47736828125,17.60136320114136L217.50660421875,16.34425294876098L217.990018125,22.5164075088501L218.00547140625,20.406632652282713L218.0106225,17.518867092132574L218.92932703124998,15.842368984222404L218.96213625,59.82236606597901L218.97605812499998,64.04885009765626L219.09666796875,17.21640048980714L219.17741484375,19.406217098236084L219.2263734375,15.502725791931148L219.28201453125,20.692523059844977L219.30684187499998,15.392343864440926L219.3325509375,14.999444160461419L219.38823843749998,53.591890983581536L219.42137250000002,14.972486743927004L219.60161437500003,16.701866626739502L219.66746484375,19.41640588760376L219.83025796875,24.897295989990237L219.83977125,14.444003219604502L219.88729125,17.237176437377933L220.120621875,21.317965507507324L220.2397003125,15.640713329315195L220.4379478125,15.879829158782957L220.54148015625,21.411406631469735L220.67591906250001,16.309534091949466L220.77954421874998,15.908285522460929L220.8517059375,21.39513090133667L221.02939546875,17.58662355422973L221.66386171875,17.95443952560424L221.947171875,21.0341547203064L222.3123890625,16.713247146606452L222.41550375,18.120252113342282L222.47453249999998,16.570428543090816L222.59337890625,15.025476551055917L222.9288496875,20.081938419342034L223.00012968750002,17.53759380340576L223.21540828125,17.761649265289297L223.33657499999998,19.114357910156247L223.39342265624998,16.413093109130863L223.86611671875,20.828282432556158L223.92147937500002,16.709344482421884L224.43612468749998,16.69898014068604L224.7578128125,19.262787437438973L224.9705390625,20.583832511901857L224.98125890625002,19.203903121948237L225.14057156249999,22.344055595397943L225.3462440625,15.733286819458005L225.61869515625,19.26605878829957L225.89137828124998,16.143856544494632L225.9019125,16.83711622238159L225.95101031250002,18.23527605056763L226.10558953125002,18.400231132507326L226.21046765625,16.258073616027836L226.2264778125,17.88649063110352L226.30379062499998,23.33828630447387L226.62441140625,21.769013557434075L227.13432328125,15.362503337860112L227.378559375,17.309713325500486L227.39967421875,16.489812870025638L227.73291749999999,16.11734813690185L228.00462609375,19.0441572189331L228.17210625,17.207227878570553L228.29169515625,17.531874847412105L228.33373921875,16.739336929321286L228.69111375,18.818727722167967L229.03558734375,16.95907447814941L229.2031603125,20.491491966247555L229.28562421875,17.67108449935914L229.3158346875,17.236180515289306L229.51723781249999,19.50603549957275L229.67794265625002,19.87933073043824L229.75432734375,17.5921365737915L229.931274375,16.58607971191407L230.15161125,18.660980415344234L230.63070937499998,18.11904350280761L231.085490625,16.16323820114135L231.24280781250002,18.071370906829838L231.313809375,20.236481895446776L231.34550484374998,21.038195800781246L231.351305625,21.476344127655032L231.36188625,20.46260009765626L231.8152753125,27.103320808410643L232.13506078125,18.06399770736694L232.766510625,20.88446256637573L232.86317484375,20.11631967544556L233.15094000000002,17.601822338104245L233.16138140625,18.004539470672604L233.3106703125,17.948079128265384L233.49077296875,18.87320972442627L233.66600296875,20.548252773284908L233.82721828125,17.987250938415517L234.15865171874998,80.74298229217528L234.30251109375,22.92695022583008L234.33044765625,17.379897136688236L234.50563125,25.928041591644277L234.69390140625,19.531767425537115L234.78908062500003,17.82115476608276L234.89029265625,22.238703918457027L235.14891468750002,19.632119235992437L235.4318071875,18.455290431976326L235.68769125,18.705172348022465L235.76398312499998,19.325587921142574L235.85220140625,22.01155265808106L235.9672425,19.033860397338863L236.01587625,19.45704626083374L236.1123084375,17.535601959228526L236.12864343750002,18.71395334243775L236.4757621875,22.05203435897827L236.4850434375,46.25163459777832L236.56295953125002,19.216600284576426L237.08632921875,19.24195072174072L237.1740834375,20.1795556640625L237.24675562500002,18.082734546661374L237.30666609375,17.51175722122193L237.75880218749998,40.68046669006348L237.84831984375,15.506371879577628L237.89834578125,18.990320034027103L237.9293915625,19.6397658920288L238.24732078125,20.045666599273673L238.468910625,18.93443361282348L239.35522359375,17.295182991027836L239.607163125,20.54818187713624L239.87339578125,20.323660526275628L239.88393,18.889043197631846L240.10273546875,22.660563011169437L240.10802578125,18.522064476013185L240.11433703125,21.19230039596558L240.204504375,21.557840938568123L240.28251328125,21.00383480072022L240.29365078125002,19.358763942718507L240.8453746875,124.57630874633789L241.90766015625002,70.79767730712891L242.10256640625,60.36324966430663L242.22600703125,48.11041683197021L242.94623203125002,50.063652992248535L243.0056784375,18.886666488647457L243.06382546875,40.781740150451654L243.09185484374999,18.3419578742981L243.0971915625,16.63369829177857L243.6407015625,42.530410537719725L243.90359296875002,20.821695842742923L244.35605390625,81.4529430770874L244.75978828125,46.637586479187L245.76805687499998,44.837249679565424L245.87298140625,27.774143543243415L245.94686015625,25.264757480621345L246.33249609375,22.06789146423341L246.492736875,40.041125221252436L246.7352559375,20.80922149658203L246.75237984375,20.963798732757567L246.93995390625,20.002372684478754L247.01907656249998,19.21323778152466L247.06088859374998,23.340102596282954L247.14377015625,20.431358528137203L247.16655562500003,21.97829561233521L247.52741062500002,18.25036005020142L247.64300859374998,20.075841350555415L247.659946875,20.87790298461914L247.7851509375,20.810318698883055L248.02906218750002,38.488924942016595L248.3357146875,20.016946907043465L248.61164624999998,25.94341930389405L248.91370453124998,22.395411415100092L248.926651875,23.369311809539795L249.1441115625,26.54459838867188L249.24574125,19.286297950744622L249.37823109375,17.754610290527342L250.09938421875,19.42150703430175L251.11182937499999,17.278448123931888L251.11744453125002,19.294396991729744L251.275550625,19.474706153869626L251.32984593749998,21.714325618743892L251.53988062500002,17.59668067932129L251.8883915625,20.555973701477047L252.27732234375,18.468591899871825L252.3556096875,20.471904373168954L252.40702781250002,21.186956176757814L252.951001875,30.01351318359376L253.16029406250001,18.934892749786385L253.4151571875,24.487431850433357L253.80334546875,17.15588556289674L255.00860859374998,16.596785030364988L255.2305696875,19.679697303771974" style="fill: none;" fill="none"></path></g></g></g></g></g></g><g transform="translate(51, 177)" clip-path="url(#clip_1)"><clipPath id="clip_1"><rect width="278" height="23"></rect></clipPath><g><g><line x1="0" y1="0" x2="0" y2="5" style="visibility: inherit;" fill="rgb(0, 0, 0)" stroke="rgb(204, 204, 204)" stroke-width="1px"></line><line x1="23.203125" y1="0" x2="23.203125" y2="5" style="visibility: inherit;" fill="rgb(0, 0, 0)" stroke="rgb(204, 204, 204)" stroke-width="1px"></line><line x1="46.40625" y1="0" x2="46.40625" y2="5" style="visibility: inherit;" fill="rgb(0, 0, 0)" stroke="rgb(204, 204, 204)" stroke-width="1px"></line><line x1="69.609375" y1="0" x2="69.609375" y2="5" style="visibility: inherit;" fill="rgb(0, 0, 0)" stroke="rgb(204, 204, 204)" stroke-width="1px"></line><line x1="92.8125" y1="0" x2="92.8125" y2="5" style="visibility: inherit;" fill="rgb(0, 0, 0)" stroke="rgb(204, 204, 204)" stroke-width="1px"></line><line x1="116.015625" y1="0" x2="116.015625" y2="5" style="visibility: inherit;" fill="rgb(0, 0, 0)" stroke="rgb(204, 204, 204)" stroke-width="1px"></line><line x1="139.21875" y1="0" x2="139.21875" y2="5" style="visibility: inherit;" fill="rgb(0, 0, 0)" stroke="rgb(204, 204, 204)" stroke-width="1px"></line><line x1="162.421875" y1="0" x2="162.421875" y2="5" style="visibility: inherit;" fill="rgb(0, 0, 0)" stroke="rgb(204, 204, 204)" stroke-width="1px"></line><line x1="185.625" y1="0" x2="185.625" y2="5" style="visibility: inherit;" fill="rgb(0, 0, 0)" stroke="rgb(204, 204, 204)" stroke-width="1px"></line><line x1="208.828125" y1="0" x2="208.828125" y2="5" style="visibility: inherit;" fill="rgb(0, 0, 0)" stroke="rgb(204, 204, 204)" stroke-width="1px"></line><line x1="232.03125" y1="0" x2="232.03125" y2="5" style="visibility: inherit;" fill="rgb(0, 0, 0)" stroke="rgb(204, 204, 204)" stroke-width="1px"></line><line x1="255.234375" y1="0" x2="255.234375" y2="5" style="visibility: inherit;" fill="rgb(0, 0, 0)" stroke="rgb(204, 204, 204)" stroke-width="1px"></line><line x1="278.4375" y1="0" x2="278.4375" y2="5" style="visibility: inherit;" fill="rgb(0, 0, 0)" stroke="rgb(204, 204, 204)" stroke-width="1px"></line></g><g transform="translate(0, 8)"><text x="0" y="0" dx="0em" dy="0.95em" style="text-anchor: middle; visibility: hidden; font-family: Roboto, sans-serif; font-size: 12px; font-weight: 200;" fill="rgb(33, 33, 33)" stroke="none" stroke-width="1px">-500k</text><text x="23.203125" y="0" dx="0em" dy="0.95em" style="text-anchor: middle; visibility: inherit; font-family: Roboto, sans-serif; font-size: 12px; font-weight: 200;" fill="rgb(33, 33, 33)" stroke="none" stroke-width="1px">0</text><text x="46.40625" y="0" dx="0em" dy="0.95em" style="text-anchor: middle; visibility: hidden; font-family: Roboto, sans-serif; font-size: 12px; font-weight: 200;" fill="rgb(33, 33, 33)" stroke="none" stroke-width="1px">500k</text><text x="69.609375" y="0" dx="0em" dy="0.95em" style="text-anchor: middle; visibility: inherit; font-family: Roboto, sans-serif; font-size: 12px; font-weight: 200;" fill="rgb(33, 33, 33)" stroke="none" stroke-width="1px">1M</text><text x="92.8125" y="0" dx="0em" dy="0.95em" style="text-anchor: middle; visibility: hidden; font-family: Roboto, sans-serif; font-size: 12px; font-weight: 200;" fill="rgb(33, 33, 33)" stroke="none" stroke-width="1px">1.5M</text><text x="116.015625" y="0" dx="0em" dy="0.95em" style="text-anchor: middle; visibility: inherit; font-family: Roboto, sans-serif; font-size: 12px; font-weight: 200;" fill="rgb(33, 33, 33)" stroke="none" stroke-width="1px">2M</text><text x="139.21875" y="0" dx="0em" dy="0.95em" style="text-anchor: middle; visibility: hidden; font-family: Roboto, sans-serif; font-size: 12px; font-weight: 200;" fill="rgb(33, 33, 33)" stroke="none" stroke-width="1px">2.5M</text><text x="162.421875" y="0" dx="0em" dy="0.95em" style="text-anchor: middle; visibility: inherit; font-family: Roboto, sans-serif; font-size: 12px; font-weight: 200;" fill="rgb(33, 33, 33)" stroke="none" stroke-width="1px">3M</text><text x="185.625" y="0" dx="0em" dy="0.95em" style="text-anchor: middle; visibility: hidden; font-family: Roboto, sans-serif; font-size: 12px; font-weight: 200;" fill="rgb(33, 33, 33)" stroke="none" stroke-width="1px">3.5M</text><text x="208.828125" y="0" dx="0em" dy="0.95em" style="text-anchor: middle; visibility: inherit; font-family: Roboto, sans-serif; font-size: 12px; font-weight: 200;" fill="rgb(33, 33, 33)" stroke="none" stroke-width="1px">4M</text><text x="232.03125" y="0" dx="0em" dy="0.95em" style="text-anchor: middle; visibility: hidden; font-family: Roboto, sans-serif; font-size: 12px; font-weight: 200;" fill="rgb(33, 33, 33)" stroke="none" stroke-width="1px">4.5M</text><text x="255.234375" y="0" dx="0em" dy="0.95em" style="text-anchor: middle; visibility: inherit; font-family: Roboto, sans-serif; font-size: 12px; font-weight: 200;" fill="rgb(33, 33, 33)" stroke="none" stroke-width="1px">5M</text><text x="278.4375" y="0" dx="0em" dy="0.95em" style="text-anchor: middle; visibility: hidden; font-family: Roboto, sans-serif; font-size: 12px; font-weight: 200;" fill="rgb(33, 33, 33)" stroke="none" stroke-width="1px">5.5M</text></g><line x1="0" y1="0" x2="278.4375" y2="0" fill="rgb(0, 0, 0)" stroke="rgb(204, 204, 204)" stroke-width="1px"></line></g></g></g></g></svg>