<svg viewBox="0 0 330 200" xmlns="http://www.w3.org/2000/svg"><g><g><g><g><g><line x1="41.171875" y1="177" x2="36.171875" y2="177" style="visibility: inherit;" fill="rgb(0, 0, 0)" stroke="rgb(204, 204, 204)" stroke-width="1px"></line><line x1="41.171875" y1="162.25" x2="36.171875" y2="162.25" style="visibility: inherit;" fill="rgb(0, 0, 0)" stroke="rgb(204, 204, 204)" stroke-width="1px"></line><line x1="41.171875" y1="147.5" x2="36.171875" y2="147.5" style="visibility: inherit;" fill="rgb(0, 0, 0)" stroke="rgb(204, 204, 204)" stroke-width="1px"></line><line x1="41.171875" y1="132.75" x2="36.171875" y2="132.75" style="visibility: inherit;" fill="rgb(0, 0, 0)" stroke="rgb(204, 204, 204)" stroke-width="1px"></line><line x1="41.171875" y1="118.00000000000001" x2="36.171875" y2="118.00000000000001" style="visibility: inherit;" fill="rgb(0, 0, 0)" stroke="rgb(204, 204, 204)" stroke-width="1px"></line><line x1="41.171875" y1="103.24999999999999" x2="36.171875" y2="103.24999999999999" style="visibility: inherit;" fill="rgb(0, 0, 0)" stroke="rgb(204, 204, 204)" stroke-width="1px"></line><line x1="41.171875" y1="88.5" x2="36.171875" y2="88.5" style="visibility: inherit;" fill="rgb(0, 0, 0)" stroke="rgb(204, 204, 204)" stroke-width="1px"></line><line x1="41.171875" y1="73.75" x2="36.171875" y2="73.75" style="visibility: inherit;" fill="rgb(0, 0, 0)" stroke="rgb(204, 204, 204)" stroke-width="1px"></line><line x1="41.171875" y1="59.00000000000001" x2="36.171875" y2="59.00000000000001" style="visibility: inherit;" fill="rgb(0, 0, 0)" stroke="rgb(204, 204, 204)" stroke-width="1px"></line><line x1="41.171875" y1="44.25" x2="36.171875" y2="44.25" style="visibility: inherit;" fill="rgb(0, 0, 0)" stroke="rgb(204, 204, 204)" stroke-width="1px"></line><line x1="41.171875" y1="29.499999999999993" x2="36.171875" y2="29.499999999999993" style="visibility: inherit;" fill="rgb(0, 0, 0)" stroke="rgb(204, 204, 204)" stroke-width="1px"></line><line x1="41.171875" y1="14.750000000000007" x2="36.171875" y2="14.750000000000007" style="visibility: inherit;" fill="rgb(0, 0, 0)" stroke="rgb(204, 204, 204)" stroke-width="1px"></line><line x1="41.171875" y1="0" x2="36.171875" y2="0" style="visibility: inherit;" fill="rgb(0, 0, 0)" stroke="rgb(204, 204, 204)" stroke-width="1px"></line></g><g transform="translate(31.171875, 0)"><text x="0" y="177" dx="0em" dy="0.3em" style="text-anchor: end; visibility: hidden; font-family: Roboto, sans-serif; font-size: 12px; font-weight: 200;" fill="rgb(33, 33, 33)" stroke="none" stroke-width="1px">80</text><text x="0" y="162.25" dx="0em" dy="0.3em" style="text-anchor: end; visibility: inherit; font-family: Roboto, sans-serif; font-size: 12px; font-weight: 200;" fill="rgb(33, 33, 33)" stroke="none" stroke-width="1px">100</text><text x="0" y="147.5" dx="0em" dy="0.3em" style="text-anchor: end; visibility: hidden; font-family: Roboto, sans-serif; font-size: 12px; font-weight: 200;" fill="rgb(33, 33, 33)" stroke="none" stroke-width="1px">120</text><text x="0" y="132.75" dx="0em" dy="0.3em" style="text-anchor: end; visibility: inherit; font-family: Roboto, sans-serif; font-size: 12px; font-weight: 200;" fill="rgb(33, 33, 33)" stroke="none" stroke-width="1px">140</text><text x="0" y="118.00000000000001" dx="0em" dy="0.3em" style="text-anchor: end; visibility: hidden; font-family: Roboto, sans-serif; font-size: 12px; font-weight: 200;" fill="rgb(33, 33, 33)" stroke="none" stroke-width="1px">160</text><text x="0" y="103.24999999999999" dx="0em" dy="0.3em" style="text-anchor: end; visibility: inherit; font-family: Roboto, sans-serif; font-size: 12px; font-weight: 200;" fill="rgb(33, 33, 33)" stroke="none" stroke-width="1px">180</text><text x="0" y="88.5" dx="0em" dy="0.3em" style="text-anchor: end; visibility: hidden; font-family: Roboto, sans-serif; font-size: 12px; font-weight: 200;" fill="rgb(33, 33, 33)" stroke="none" stroke-width="1px">200</text><text x="0" y="73.75" dx="0em" dy="0.3em" style="text-anchor: end; visibility: inherit; font-family: Roboto, sans-serif; font-size: 12px; font-weight: 200;" fill="rgb(33, 33, 33)" stroke="none" stroke-width="1px">220</text><text x="0" y="59.00000000000001" dx="0em" dy="0.3em" style="text-anchor: end; visibility: hidden; font-family: Roboto, sans-serif; font-size: 12px; font-weight: 200;" fill="rgb(33, 33, 33)" stroke="none" stroke-width="1px">240</text><text x="0" y="44.25" dx="0em" dy="0.3em" style="text-anchor: end; visibility: inherit; font-family: Roboto, sans-serif; font-size: 12px; font-weight: 200;" fill="rgb(33, 33, 33)" stroke="none" stroke-width="1px">260</text><text x="0" y="29.499999999999993" dx="0em" dy="0.3em" style="text-anchor: end; visibility: hidden; font-family: Roboto, sans-serif; font-size: 12px; font-weight: 200;" fill="rgb(33, 33, 33)" stroke="none" stroke-width="1px">280</text><text x="0" y="14.750000000000007" dx="0em" dy="0.3em" style="text-anchor: end; visibility: inherit; font-family: Roboto, sans-serif; font-size: 12px; font-weight: 200;" fill="rgb(33, 33, 33)" stroke="none" stroke-width="1px">300</text><text x="0" y="0" dx="0em" dy="0.3em" style="text-anchor: end; visibility: hidden; font-family: Roboto, sans-serif; font-size: 12px; font-weight: 200;" fill="rgb(33, 33, 33)" stroke="none" stroke-width="1px">320</text></g><line x1="41.171875" y1="0" x2="41.171875" y2="177" fill="rgb(0, 0, 0)" stroke="rgb(204, 204, 204)" stroke-width="1px"></line></g></g><g transform="translate(41, 0)" clip-path="url(#clip_0)"><clipPath id="clip_0"><rect width="288" height="177"></rect></clipPath><g><g><g><line x1="0" y1="0" x2="0" y2="177" fill="rgb(0, 0, 0)" stroke="rgb(66, 66, 66)" stroke-width="1px" opacity="0.25"></line><line x1="24.069010416666664" y1="0" x2="24.069010416666664" y2="177" fill="rgb(0, 0, 0)" stroke="rgb(66, 66, 66)" stroke-width="1px" opacity="0.25"></line><line x1="48.13802083333333" y1="0" x2="48.13802083333333" y2="177" fill="rgb(0, 0, 0)" stroke="rgb(66, 66, 66)" stroke-width="1px" opacity="0.25"></line><line x1="72.20703125" y1="0" x2="72.20703125" y2="177" fill="rgb(0, 0, 0)" stroke="rgb(66, 66, 66)" stroke-width="1px" opacity="0.25"></line><line x1="96.27604166666666" y1="0" x2="96.27604166666666" y2="177" fill="rgb(0, 0, 0)" stroke="rgb(66, 66, 66)" stroke-width="1px" opacity="0.25"></line><line x1="120.34505208333334" y1="0" x2="120.34505208333334" y2="177" fill="rgb(0, 0, 0)" stroke="rgb(66, 66, 66)" stroke-width="1px" opacity="0.25"></line><line x1="144.4140625" y1="0" x2="144.4140625" y2="177" fill="rgb(0, 0, 0)" stroke="rgb(66, 66, 66)" stroke-width="1px" opacity="0.25"></line><line x1="168.48307291666669" y1="0" x2="168.48307291666669" y2="177" fill="rgb(0, 0, 0)" stroke="rgb(66, 66, 66)" stroke-width="1px" opacity="0.25"></line><line x1="192.55208333333331" y1="0" x2="192.55208333333331" y2="177" fill="rgb(0, 0, 0)" stroke="rgb(66, 66, 66)" stroke-width="1px" opacity="0.25"></line><line x1="216.62109375" y1="0" x2="216.62109375" y2="177" fill="rgb(0, 0, 0)" stroke="rgb(66, 66, 66)" stroke-width="1px" opacity="0.25"></line><line x1="240.69010416666669" y1="0" x2="240.69010416666669" y2="177" fill="rgb(0, 0, 0)" stroke="rgb(66, 66, 66)" stroke-width="1px" opacity="0.25"></line><line x1="264.7591145833333" y1="0" x2="264.7591145833333" y2="177" fill="rgb(0, 0, 0)" stroke="rgb(66, 66, 66)" stroke-width="1px" opacity="0.25"></line><line x1="288.828125" y1="0" x2="288.828125" y2="177" fill="rgb(0, 0, 0)" stroke="rgb(66, 66, 66)" stroke-width="1px" opacity="0.25"></line></g><g><line x1="0" y1="177" x2="288.828125" y2="177" fill="rgb(0, 0, 0)" stroke="rgb(66, 66, 66)" stroke-width="1px" opacity="0.25"></line><line x1="0" y1="162.25" x2="288.828125" y2="162.25" fill="rgb(0, 0, 0)" stroke="rgb(66, 66, 66)" stroke-width="1px" opacity="0.25"></line><line x1="0" y1="147.5" x2="288.828125" y2="147.5" fill="rgb(0, 0, 0)" stroke="rgb(66, 66, 66)" stroke-width="1px" opacity="0.25"></line><line x1="0" y1="132.75" x2="288.828125" y2="132.75" fill="rgb(0, 0, 0)" stroke="rgb(66, 66, 66)" stroke-width="1px" opacity="0.25"></line><line x1="0" y1="118.00000000000001" x2="288.828125" y2="118.00000000000001" fill="rgb(0, 0, 0)" stroke="rgb(66, 66, 66)" stroke-width="1px" opacity="0.25"></line><line x1="0" y1="103.24999999999999" x2="288.828125" y2="103.24999999999999" fill="rgb(0, 0, 0)" stroke="rgb(66, 66, 66)" stroke-width="1px" opacity="0.25"></line><line x1="0" y1="88.5" x2="288.828125" y2="88.5" fill="rgb(0, 0, 0)" stroke="rgb(66, 66, 66)" stroke-width="1px" opacity="0.25"></line><line x1="0" y1="73.75" x2="288.828125" y2="73.75" fill="rgb(0, 0, 0)" stroke="rgb(66, 66, 66)" stroke-width="1px" opacity="0.25"></line><line x1="0" y1="59.00000000000001" x2="288.828125" y2="59.00000000000001" fill="rgb(0, 0, 0)" stroke="rgb(66, 66, 66)" stroke-width="1px" opacity="0.25"></line><line x1="0" y1="44.25" x2="288.828125" y2="44.25" fill="rgb(0, 0, 0)" stroke="rgb(66, 66, 66)" stroke-width="1px" opacity="0.25"></line><line x1="0" y1="29.499999999999993" x2="288.828125" y2="29.499999999999993" fill="rgb(0, 0, 0)" stroke="rgb(66, 66, 66)" stroke-width="1px" opacity="0.25"></line><line x1="0" y1="14.750000000000007" x2="288.828125" y2="14.750000000000007" fill="rgb(0, 0, 0)" stroke="rgb(66, 66, 66)" stroke-width="1px" opacity="0.25"></line><line x1="0" y1="0" x2="288.828125" y2="0" fill="rgb(0, 0, 0)" stroke="rgb(66, 66, 66)" stroke-width="1px" opacity="0.25"></line></g></g></g><g><g><line x1="0" y1="236" x2="288.828125" y2="236" fill="rgb(0, 0, 0)" stroke="rgb(153, 153, 153)" stroke-width="1.5px"></line></g></g><g><g><line x1="24.069010416666664" y1="0" x2="24.069010416666664" y2="177" fill="rgb(0, 0, 0)" stroke="rgb(153, 153, 153)" stroke-width="1.5px"></line></g></g><g><g><g><g><g><path stroke="rgb(255, 112, 67)" stroke-width="2px" d="M24.343348997395836,14.750000000000007L24.689942747395833,14.750000000000007L24.733266966145834,14.750000000000007L25.108743528645835,14.750000000000007L25.440895872395835,14.750000000000007L26.365145872395832,14.750000000000007L26.495118528645836,14.750000000000046L27.390485716145832,14.750000000000046L27.46269274739583,14.750000000000007L27.765962278645834,14.750000000000007L28.025907591145835,14.750000000000046L28.531356809895836,14.750000000000046L28.56023962239583,14.750000000000007L28.675770872395834,14.750000000000007L30.16323571614583,14.750000000000046L30.726450559895834,14.750000000000046L30.92863024739583,14.750000000000046L31.823997434895833,14.750000000000046L32.213915403645835,14.750000000000046L32.444977903645835,14.750000000000007L32.54606774739583,14.750000000000007L33.23925524739583,14.749999999999968L33.42699352864583,14.750000000000007L33.62917321614584,14.750000000000007L33.773587278645834,14.750000000000007L34.39456774739583,14.750000000000007L34.510098997395836,14.750000000000007L35.21772790364583,14.750000000000007L35.41990759114584,14.750000000000046L35.44879040364584,14.750000000000007L35.66541149739584,14.750000000000007L35.75205993489583,14.750000000000007L36.15641930989584,14.749999999999968L37.73053259114583,14.749999999999968L38.10600915364583,14.750000000000007L38.120450559895836,14.750000000000007L38.20709899739583,14.749999999999968L38.59701696614583,14.750000000000007L38.726989622395834,14.750000000000007L39.434618528645835,14.750000000000007L39.47794274739583,14.750000000000007L39.867860716145834,14.750000000000046L40.02671618489583,14.750000000000046L40.84987634114583,14.750000000000007L41.12426305989583,14.750000000000046L42.29401696614583,14.750000000000046L43.088294309895836,14.750000000000007L43.13161852864583,14.750000000000046L43.33379821614583,14.750000000000046L43.39156384114583,14.750000000000007L44.08475134114583,14.750000000000046L44.185841184895835,14.750000000000046L44.50355212239583,14.750000000000046L44.67684899739584,14.750000000000046L44.821263059895834,14.750000000000046L45.254505247395834,14.750000000000046L45.41336071614584,14.750000000000007L45.61554040364584,14.749999999999968L46.07766540364583,14.750000000000007L46.49646618489584,14.750000000000007L46.72752868489584,14.750000000000007L46.95859118489583,14.750000000000007L47.01635680989583,14.750000000000007L47.26186071614583,14.750000000000046L47.767309934895835,14.750000000000007L48.50382165364583,14.750000000000007L48.76376696614584,14.750000000000046L48.893739622395834,14.750000000000046L49.095919309895834,14.750000000000046L49.124802122395835,14.750000000000007L49.16812634114583,14.750000000000046L49.803548216145835,14.750000000000046L50.453411497395834,14.750000000000046L50.713356809895835,14.750000000000085L50.84332946614583,14.750000000000085L51.03106774739583,14.750000000000085L51.07439196614584,14.750000000000085L51.189923216145836,14.750000000000085L51.76757946614583,14.750000000000085L52.01308337239583,14.750000000000085L52.20082165364583,14.750000000000085L52.980657591145835,14.750000000000085L53.48610680989584,14.750000000000085L54.078204466145834,14.750000000000085L54.352591184895836,14.750000000000085L55.666759153645835,14.750000000000085L55.84005602864583,14.750000000000085L56.01335290364583,14.750000000000085L56.30218102864583,14.750000000000085L56.37438805989583,14.750000000000085L56.388829466145836,14.750000000000085L56.67765759114583,14.750000000000085L56.749864622395826,14.750000000000085L57.39972790364583,14.750000000000085L57.57302477864584,14.750000000000085L58.07847399739583,14.750000000000085L58.583923216145834,14.750000000000085L58.598364622395835,14.750000000000085L58.62724743489583,14.750000000000085L59.262669309895834,14.750000000000085L59.50817321614583,14.750000000000085L59.537056028645836,14.750000000000085L59.60926305989584,14.750000000000085L59.970298216145835,14.750000000000085L59.984739622395836,14.750000000000085L60.12703561197917,14.750000000000085L60.15591842447917,14.750000000000085L60.22812545572916,14.750000000000085L60.64630044270834,14.750000000000085L60.86292153645834,14.750000000000085L60.94956997395833,14.750000000000085L62.85150317708334,14.750000000000085L63.645780520833334,14.750000000000085L63.847960208333326,14.750000000000085L64.35340942708334,14.750000000000085L65.8959923046875,14.750000000000085L66.92094704427083,14.750000000000085L67.55381760416667,14.750000000000085L67.94373557291667,14.750000000000085L67.98705979166667,14.750000000000085L68.8146005078125,14.750000000000085L69.699136640625,14.750000000000085L70.18210540364583,14.750000000000085L70.67195790364583,14.750000000000085L70.869179375,17.40500000000007L70.8980621875,16.343000000000067L70.91250359375,15.705800000000039L71.7340751953125,15.32348000000001L72.7244668359375,21.879087999999996L73.18336658854166,19.027452799999992L73.45751261718749,33.83647168L73.70653059895832,26.20188300800003L74.14396079427084,21.62112980480004L75.77049638020834,38.63767788288001L75.9951565234375,58.28760672972799L76.0240393359375,40.872564037836774L76.68791078125,30.42353842270205L77.46042973958333,29.75912305362124L77.63892552083334,41.75047383217276L78.2763210546875,57.20528429930365L78.54507562500001,65.00317057958219L78.60154152343749,44.90190234774931L78.6304243359375,32.84114140864956L79.19330221354166,52.74468484518973L80.02267217447917,37.54681090711387L80.40392529947917,28.42808654426832L80.77713937499999,22.956851926561004L81.4470762109375,25.574111155936595L82.253917578125,21.244466693561932L82.4100291796875,18.64668001613718L83.32325557291666,30.9530080096823L83.51965869791667,24.47180480580937L83.59542794270833,36.80808288348565L83.9229108984375,27.984849730091426L83.9890525390625,59.86090983805485L84.37776705729166,82.52654590283295L84.84677579427083,55.415927541699766L85.00770119791666,39.14955652501987L85.0340326953125,45.02473391501191L85.97286851562501,38.22484034900712L86.39320971354167,28.8349042094043L87.131358125,46.50594252564258L87.33700375,69.20356551538555L87.57037687500001,60.99213930923134L88.74176747395832,83.50028358553881L89.11214140625,100.25017015132327L89.15854645833333,90.53510209079396L89.26512403645833,76.74106125447638L90.09598627604166,84.39463675268583L90.52629204427083,56.5367820516115L90.66059712239583,39.82206923096693L90.68211481770832,74.92824153858015L91.13865580729166,50.856944923148085L91.2946711328125,36.41416695388886L91.75265626302082,49.2835001723333L92.4291880078125,35.470100103399986L92.53494723958333,27.182060062040023L92.56344494791666,44.03923603722402L93.40509010416666,48.54854162233443L93.42939980468749,35.02912497340067L94.00411963541667,26.917474984040407L94.31980877604167,22.050484990424234L95.10157023437499,19.130290994254544L95.66021196614584,17.37817459655276L96.71260537760416,38.45190475793166L96.9064571875,55.81614285475898L97.07060783854166,39.3896857128554L97.74978717447917,54.31381142771324L97.996783359375,55.30328685662793L98.83395167968749,83.03697211397674L98.858646484375,61.03218326838606L99.208995,58.154309961031636L99.64358505208334,65.27758597661897L100.42034015624999,76.92655158597137L100.46274975260415,52.055930951582816L100.6272855078125,56.01355857094969L100.99660040364583,88.18313514256982L101.02596459635416,58.809881085541875L101.81942359375,78.94592865132513L101.959505234375,96.63255719079507L101.98121548177083,109.01453431447705L102.250066328125,109.36372058868622L102.26677022135416,113.99823235321172L102.32814619791667,110.58393941192703L102.66188709635416,102.04536364715621L102.86247822916665,116.39221818829373L103.09421466145832,115.85533091297623L103.1946787109375,81.60819854778573L103.4540463671875,54.86491912867144L103.65401170572918,83.65895147720288L103.71755389322917,56.09537088632174L104.82795361979166,66.69722253179305L104.919415859375,94.29833351907584L105.42019569010417,101.7140001114455L105.613181015625,112.35840006686732L105.73978401041667,120.2200400401204L105.7944206640625,113.72702402407224L105.93108450520833,93.31121441444333L106.46041018229167,72.21172864866601L106.68791046874999,65.4520371891996L106.73720380208333,76.14622231351976L106.96354877604166,95.54273338811187L107.15523437499999,102.46064003286713L107.26672203125,113.98638401972029L107.50457199218751,112.64183041183217L108.36580932291666,73.48509824709932L108.62835408854166,76.8360589482596L109.11656989583334,100.67663536895576L109.18892134114583,112.03098122137345L109.3345869921875,119.72858873282408L109.80658028645834,113.43215323969444L109.8874040234375,102.57429194381668L110.14450919270833,117.88957516629L110.17165903645834,76.63374509977399L110.26105134114583,96.13024705986442L110.45331459635416,101.33814823591864L110.48287134114584,96.7928889415512L111.23512419270833,63.9757333649307L111.2877871875,95.02544001895843L111.3945091796875,111.88526401137504L112.08442329427083,111.38115840682504L112.29343858072917,119.33869504409503L112.47684444010416,128.538217026457L113.137153671875,130.22293021587421L113.194919296875,130.64375812952454L113.492989921875,125.8812548777147L113.92512493489583,122.43375292662883L114.14083140625,128.9202517559773L114.58249774739583,132.51715105358636L114.70529783854167,133.4952906321518L114.7761088671875,137.6221743792911L114.78347398437501,131.83830462757467L114.90670731770832,138.10298277654482L115.12679434895834,91.12178966592688L115.26928289062499,116.91807379955614L115.55705197916667,123.25084427973367L115.63383212239583,90.1755065678402L115.73054140625,100.12530394070413L115.75018171875,119.96018236442248L115.86162123697916,119.17610941865348L116.10101161458333,126.6706656511921L116.77359604166666,132.64239939071524L117.01895553385417,132.09543963442914L117.15783372395833,133.8322637806575L117.35033766927084,135.75935826839452L117.38937760416665,137.21061496103673L117.84510024739583,136.606368976622L117.97406200520834,133.8838213859732L118.02619548177084,135.49529283158392L118.09118180989583,137.64217569895035L118.32080016927083,140.40530541937022L118.75279076822916,142.06318325162212L118.95376700520833,144.8279099509733L119.35475671875,144.71674597058396L119.58538597656249,141.70004758235038L119.65200899739584,140.77502854941022L119.73321783854168,141.10501712964611L119.83743665364584,139.82801027778768L120.56475401041666,138.17680616667258L120.58896743489584,144.26608370000355L120.79389098958333,142.01965022000212L120.83307533854166,138.31179013200128L121.2614555859375,142.28207407920075L121.53945265625,143.18924444752045L121.57550803385416,147.2735466685123L121.72045161458334,140.28412800110738L121.75005649739583,143.76047680066443L121.8041636328125,143.48628608039866L122.36598247395833,145.9767716482392L122.39197700520833,148.06106298894352L122.56792147135417,147.83663779336612L122.63064531250001,141.8019826760197L122.99172860677083,143.1961896056118L123.20392100260416,142.55771376336708L123.40330868489583,138.92962825802024L123.4091815234375,141.76777695481215L123.47075005208333,144.6506661728873L123.74287428385416,142.84039970373237L123.77228661458334,143.22923982223944L124.52165118489583,144.64254389334366L124.540088046875,141.06552633600617L124.66457296875001,141.2793158016037L124.8908698046875,140.22758948096222L124.930583671875,143.13655368857732L125.03273255208333,142.8169322131464L125.04414126302083,145.57515932788783L125.06147095052084,142.5100955967327L125.1885071875,140.9660573580396L125.22961705729168,144.75963441482378L125.36517372395834,145.56078064889428L125.46717819010416,145.15646838933657L125.57399645833334,147.27388103360192L125.6190055078125,145.29932862016116L125.67816713541666,144.1145971720967L125.95929317708332,144.28875830325802L126.01104154947916,134.9532549819548L127.1269771484375,140.8569529891729L127.18146938802083,145.57917179350372L127.42095604166667,93.24750307610223L127.769186484375,105.80350184566133L127.83941985677083,98.58710110739682L128.08405727864584,65.0522606644381L128.2586057421875,90.95135639866287L128.55412505208335,112.98081383919772L128.5731395703125,129.14848830351863L128.6880931640625,139.73409298211118L128.72848096354167,143.1354557892667L128.88646994791665,144.88127347356001L129.35100184895833,145.92876408413602L129.429948203125,146.8522584504816L129.48222609375,94.01135507028894L129.5563105078125,118.94681304217339L129.69851022135418,131.84308782530405L129.93963356770834,140.46585269518243L130.12250990885417,141.80451161710945L130.26745348958335,140.83770697026569L130.37061326822916,146.15762418215942L130.78493721354167,146.98957450929566L131.22915486979167,148.9637447055774L131.26549907552084,104.12824682334643L131.56486942708332,122.65694809400787L131.75121170572916,79.49416885640473L132.215406640625,104.63150131384282L132.7120466015625,122.36890078830568L132.741651484375,132.7163404729834L132.7651909765625,138.92480428379005L132.9093162109375,145.30488257027403L133.30635860677083,93.08292954216442L133.40990348958334,116.91475772529866L133.55142927083332,132.39385463517917L133.64659813802083,141.09131278110752L134.0377676953125,128.3147876686645L134.17789747395832,138.64387260119872L134.2165523046875,143.95632356071923L134.8383992578125,146.84879413643154L134.8638161328125,150.9442764818589L134.99836190104165,151.63156588911536L135.32271588541667,152.6339395334692L135.38649876302082,153.5303637200815L135.40835342447917,152.00321823204894L135.56470571614582,153.44693093922933L135.76414153645834,153.1331585635376L135.76943671875,153.82989513812257L136.04748192708334,156.90293708287356L136.13759630208335,155.2067622497241L136.21654265625,156.54905734983447L136.31233731770834,156.76443440990067L136.403125625,158.0736606459404L136.615991953125,157.67919638756425L136.86327696614583,158.03251783253856L136.86862028645834,156.47451069952314L136.98675098958333,156.42470641971386L137.0251169921875,152.85482385182834L137.175163203125,151.007894311097L137.22955916666666,152.2597365866582L137.2564683203125,147.7008419519949L137.3169778125,143.19550517119694L137.3659341796875,147.27730310271815L137.44223294270833,149.7263818616309L137.64499028645832,152.37582911697854L137.66150162760417,153.08049747018714L137.8425005859375,154.38829848211228L137.86435524739585,156.05797908926735L137.99018803385417,155.8797874535604L138.02191098958332,153.41287247213623L138.03274204427083,153.40772348328173L138.2656337890625,97.94463408996903L138.2989934375,115.70178045398141L138.38087621093752,128.71606827238887L138.40725584635416,140.3596409634333L138.85320647135418,142.33078457805996L139.05697471354165,91.29847074683599L139.17544238281252,83.68908244810159L139.69456279947917,84.43344946886096L139.99956529947917,56.56006968131658L140.02844811197917,39.83604180878995L140.04288951822917,29.80162508527394L140.89088889322917,23.780975051164376L141.06418576822915,20.168585030698615L142.67059966145834,51.92615101841918L143.1829326171875,37.05569061105148L143.44186703125,49.96341436663091L143.85835718750002,35.87804861997856L143.97672858072917,27.426829171987144L144.2071171484375,22.356097503192306L144.2996865625,72.41365850191539L144.40053571614584,76.48819510114922L144.70313131510417,94.56791706068954L145.05622369791666,62.64075023641371L145.17926447916665,43.48445014184825L145.3970890234375,82.73067008510897L145.49779376302084,104.80340205106538L145.51040592447916,118.93204123063923L146.0047833984375,129.76922473838354L146.47104826822917,134.2065348430301L146.718044453125,139.81892090581806L147.17776255208332,141.12135254349081L147.31471522135416,144.5578115260945L147.34287596354167,147.5046869156567L147.4232183203125,145.73281214939402L147.52637809895833,145.5546872896364L147.576441640625,147.21781237378184L147.69957869791665,145.26568742426912L147.77404821614584,145.86441245456146L148.55296953125,93.41864747273686L148.76896483072917,110.33118848364212L148.80343165364584,118.70871309018528L148.91174220052085,126.68522785411115L149.121094453125,133.53613671246669L149.17991911458336,142.95668202748L149.72633378906252,114.68400921648801L149.74356720052086,128.6954055298928L149.87118109374998,137.1022433179357L150.5315866015625,88.1613459907614L150.6615592578125,58.79680759445686L150.90566716145833,95.45808455667412L151.04098313802083,111.25985073400447L151.31166322916667,72.65591044040268L151.82933950520834,104.95354626424158L152.37594673177082,121.97212775854496L152.651440625,131.888276655127L152.86815799479166,85.03296599307619L153.2492185677083,107.6597795958457L153.3434728125,124.48086775750743L153.52769701822916,133.09852065450445L153.69993485677085,138.85911239270268L153.84483029947916,142.61046743562162L153.87284662760416,147.22128046137297L153.94413903645832,147.33276827682377L154.05254585937502,148.87466096609427L154.2984830078125,149.50479657965656L154.4134847395833,150.17787794779392L154.76161890625002,148.81172676867635L154.880327265625,95.18703606120583L155.06724720052085,116.40722163672348L155.14643424479166,128.2543329820341L155.218833828125,135.95259978922044L155.3218010546875,131.42655987353226L155.4127819140625,137.56093592411935L155.436610234375,140.3565615544716L155.53731497395836,139.67393693268295L155.76202325520833,141.91936215960976L155.91827927083332,146.21661729576587L155.98172518229165,150.85997037745952L155.98692408854168,153.05598222647572L156.00824923177083,153.78358933588544L156.17461423177085,154.51515360153127L156.6222496875,146.39909216091877L156.85225315104168,148.60945529655126L157.18772701822917,145.21567317793077L157.21126651041666,144.35940390675847L157.34489765625,145.91064234405508L157.62380934895833,150.38138540643305L157.80711893229164,150.99883124385983L158.036641015625,149.0092987463159L158.36551997395833,124.80557924778952L158.55513563802083,80.78334754867373L158.67066688802083,54.37000852920424L158.74090026041668,38.522005117522546L159.24817872395835,75.03320307051354L159.26642303385415,106.96992184230811L159.66967523437498,125.83695310538486L159.80571328124998,138.33717186323094L159.85052977864584,145.83730311793855L159.96923813802084,148.27238187076313L160.17098458333334,152.68342912245788L160.35309071614583,154.74005747347474L160.47329135416666,154.49903448408483L160.55705151041664,156.7144206904509L160.88150177083332,154.50365241427053L160.98466154947914,157.01219144856233L160.99963247395834,158.51731486913738L161.04959973958333,157.35538892148244L161.07968600260415,157.8382333528895L161.1922808333333,156.3579400117337L161.60997444010417,156.6497640070402L162.72571748697916,150.03985840422413L162.76913798177083,146.95891504253447L162.91307066406247,138.9153490255207L163.24324934895833,129.0742094153124L163.25321391927085,110.77952564918743L163.28666984375,129.89271538951246L163.33658897135416,130.15062923370746L163.500113828125,136.2053775402245L163.6114570703125,119.77822652413468L163.67288118489583,124.67193591448081L164.32914682291667,119.05316154868851L164.94651694010417,130.43189692921308L165.27279644531248,134.89913815752786L165.61924578125,86.83948289451672L165.77073613281252,109.62868973671003L165.78609216145833,129.79221384202603L166.2259292578125,84.36532830521561L166.25644876302084,114.33919698312938L166.41073111979168,132.02851818987762L166.46748584635418,85.11711091392658L166.48837774739584,113.90526654835595L166.51913794270834,131.1781599290136L166.90703411458335,113.51689595740812L167.2414489453125,74.01013757444488L167.2558903515625,50.306082544666936L167.33666595052082,36.083649526800166L167.39443157552083,27.550189716080084L167.63993548177083,22.43011382964803L168.43243171875,43.548068297788824L168.68308639322916,32.02884097867328L169.10443848958332,25.117304587203954L169.11887989583332,20.970382752322386L169.377766171875,18.482229651393443L170.00996279947918,73.92433779083605L170.47319497395836,70.31460267450163L170.7117188671875,102.95876160470097L170.73217752604168,124.61025696282059L170.99770684895833,137.30615417769235L171.098026484375,144.33369250661542L171.58186173177083,148.25521550396925L172.2344688802083,94.85312930238155L172.42394013020834,115.32187758142894L172.48204272135416,133.79812654885737L173.1137098307292,142.81887592931443L173.2640930078125,149.41132555758867L173.35170420572916,152.4817953345532L173.3619576041667,155.2090772007319L173.53766138020833,99.02544632043916L173.72289648437498,97.1752677922635L174.16504420572917,106.3901606753581L175.45923489583333,69.73409640521488L175.73939817708333,58.06545784312892L175.85093397135418,58.14427470587736L175.9193862369792,98.01656482352642L176.29024154947916,111.90993889411585L176.3064640625,125.85096333646952L176.44173190104166,137.16557800188173L176.571319453125,142.47934680112903L177.4571553125,146.5526080806774L177.5289291015625,151.35656484840646L177.95071444010418,150.10893890904384L178.1711384375,149.0653633454263L178.2920130078125,150.7992180072558L178.7128355859375,142.6945308043535L178.90057386718752,91.51671848261209L179.0395001953125,60.81003108956727L179.0972658203125,42.386018653740344L179.69359962239585,51.6866111922442L180.43492514322915,93.84696671534653L180.63200220052082,62.208180029207924L180.84819005208334,99.86490801752474L181.17591369791666,65.81894481051485L181.41429317708332,103.5063668863089L181.78967346354167,123.46382013178533L182.39496093749997,79.9782920790712L182.65490624999998,94.89197524744273L182.71324953125,111.21518514846564L183.417701328125,107.4391110890794L183.44826897135417,127.00346665344763L183.66517889322918,130.4820799920686L184.08600147135417,84.18924799524117L184.77687834635418,74.70354879714472L184.78433973958332,93.49712927828685L185.1337736328125,61.99827756697209L185.24853467447917,43.09896654018326L185.45071436197915,31.759379924109936L186.05725342447914,24.95562795446599L186.41583354166664,20.873376772679627L188.32325447916668,18.424026063607787L188.65237412760416,16.954415638164683L189.14338194010418,16.07264938289882L189.383735078125,72.7735896297393L189.80133240885417,75.22915377784355L189.85317705729167,107.67749226670614L190.0668617317708,126.26149536002366L190.10874180989583,138.2968972160142L190.18345201822916,144.92813832960852L190.25373352864582,145.95688299776512L190.3490468098958,149.81912979865905L190.35963717447916,150.95647787919543L190.478971328125,153.99888672751726L190.48397768229165,156.11933203651037L190.48893589843752,157.68659922190622L190.50405123697917,157.74195953314373L190.60210838541667,157.48017571988626L190.778774921875,156.73310543193176L190.86532708333334,156.57986325915903L190.9464396484375,157.3729179554954L191.05248770833333,158.73375077329726L191.14332415364584,158.37025046397835L191.19358024739583,159.627150278387L191.44014319010415,159.7912901670322L191.480049609375,159.59477410021933L191.65551269531252,159.18186446013158L191.76223468749998,160.40911867607895L191.83121647135417,102.14547120564738L191.9218122265625,125.00728272338843L191.98140709635416,80.90436963403306L192.01678854166667,110.78762178041984L192.0295451171875,82.69757306825191L192.05067770833332,110.97854384095113L192.185945546875,123.52212630457068L192.24101544270832,137.5382757827424L192.3420571484375,146.24296546964544L192.41156845052083,151.46577928178726L192.5942041015625,154.59946756907235L192.69259821614583,155.5946805414434L192.94513027343748,155.30680832486607L192.95023290364583,156.31408499491965L192.97637184895834,156.62345099695176L193.1159239713542,157.39907059817108L193.32922354166666,139.57444235890264L194.39615463541668,140.6796654153416L194.44544796875,142.81779924920497L194.53787296874998,91.59067954952297L194.56223080729166,87.69940772971378L194.62533975260416,113.97964463782827L194.8265566796875,122.96278678269698L195.2691376432292,79.67767206961818L195.2835790494792,53.70660324177091L195.3761003255208,94.76396194506253L195.59710197916667,118.80837716703753L195.77627169270832,117.89502630022254L195.88790376302083,126.49201578013353L196.14154299479168,133.42020946808012L196.28451291666667,143.77212568084806L196.43181526041664,147.91827540850883L196.7383581770833,149.8159652451053L197.18007265625002,141.21957914706317L197.6354101953125,90.63174748823789L198.24604098958332,113.08404849294274L198.25148058593751,128.91542909576566L198.74181446614583,140.1842574574594L198.78282805989582,147.24055447447563L199.05042731770834,152.06433268468538L199.4798666015625,145.22359961081125L199.86280455729167,151.14915976648675L199.89751207031247,154.99949585989202L200.14441197916665,142.85469751593521L200.38312842447917,148.8428185095611L200.5292754557292,122.93569110573665L200.77477936197914,134.531414663442L201.03785364583334,142.37384879806518L201.31859458333332,146.1943092788391L201.47369528645834,151.73158556730348L201.58864888020835,153.2839513403821L201.61377692708334,155.98537080422926L201.74495303385416,156.72122248253757L201.81489757812503,153.91773348952253L201.87872859375,155.48064009371353L202.03363674479166,99.1883840562281L202.36198618489584,119.39803043373686L202.48598972656248,134.4738182602421L202.68528113281252,141.45429095614526L202.77544364583332,134.43257457368716L203.17595197916668,141.1345447442123L203.4152460807292,143.38572684652738L203.436956328125,147.68643610791642L203.60197346354167,148.20186166474986L203.79096333333334,148.5111169988499L204.83165920572915,149.87667019930996L204.91720046875002,148.04100211958595L204.93838119791667,141.03960127175156L205.059592734375,146.57376076305096L205.09425210937502,141.63425645783056L205.28555260416667,144.27555387469835L205.52537622395832,92.465332324819L205.66401372395833,95.59919939489141L205.94619880208333,120.19451963693486L205.97845127604168,134.3617117821609L206.07111696614584,142.56702706929653L206.12960466145836,146.31021624157793L206.187177734375,150.03112974494678L206.46334555989583,149.60867784696805L206.51138730468747,146.99520670818083L206.53805576822916,128.9071240249085L206.57151169270833,137.5242744149451L206.91690199218752,145.64456464896705L207.07075110677084,148.15673878938023L207.26306250000002,94.79404327362815L207.7637460546875,117.0564259641769L207.8919857421875,132.18385557850613L208.1283915625,142.73531334710367L208.18091014322917,146.70618800826222L208.26558492187502,93.92371280495733L208.31276018229167,115.64922768297441L208.53226955729164,130.45453660978464L208.60158830729165,141.40272196587077L208.62719773437502,148.26663317952247L208.66137572916668,141.7649799077135L208.68116045572916,148.4839879446281L209.1634071484375,152.51539276677684L209.16865419270832,153.75423566006612L209.17948524739583,154.20254139603966L209.42754046875,152.1115248376238L209.44390739583335,152.03691490257427L209.63126057291666,153.76214894154458L209.79733674479166,151.55228936492676L209.81379994791666,152.29137361895604L209.84263462239582,150.66982417137365L210.07735561197916,152.35189450282417L210.20092591145834,153.0661367016945L210.29325463541667,151.4296820210167L210.34384769531252,151.03780921261003L210.35506385416667,150.212685527566L210.60663315104165,148.8326113165396L210.66160677083334,151.24956678992376L210.7687138671875,135.29474007395427L211.0182613671875,122.77184404437254L211.13822131510418,136.7931064266235L211.2894709765625,139.89586385597408L211.54749076822918,139.69251831358446L211.65267234375,89.71551098815067L211.65777497395834,116.95930659289041L211.81605278645833,127.11058395573426L211.83049419270833,82.16635037344055L211.8461871875,78.20981022406434L211.88190559895833,52.82588613443861L211.97813350260418,37.595531680663164L212.63853901041668,85.0973190083979L212.64364164062502,114.18839140503874L212.7321674609375,130.75803484302324L212.75455164062498,137.74982090581395L212.99090932291668,141.35489254348838L213.18577203125002,144.40293552609302L213.19150045572917,145.93676131565581L213.20868572916666,147.44705678939349L213.21407718749998,149.8282340736361L213.44162561197916,151.25694044418165L213.48957108072915,152.40916426650898L213.616414765625,153.6904985599054L213.7948624088542,151.50929913594325L213.968785078125,154.33057948156593L213.973983984375,155.13834768893958L214.18646520833335,156.21300861336374L214.41074024739584,155.67780516801824L214.62813154947915,157.71668310081094L214.65903615885418,158.05500986048656L214.668904453125,158.84800591629195L214.67400708333332,158.43880354977514L214.84826671875,157.60328212986508L214.90492516927083,156.80696927791905L214.92807955729168,151.90418156675142L215.4096041796875,97.04250894005087L215.88766286458332,118.40550536403052L216.0447372265625,132.1083032184183L216.146549140625,85.16498193105099L216.55004203125,111.27898915863058L216.57492938802082,127.24239349517838L216.61955333333333,82.24543609710705L217.0705103125,109.23226165826424L217.19624682291666,126.89935699495855L217.61085959635417,138.97461419697512L217.83797477864584,145.62976851818507L217.84375134114583,146.37786111091103L218.25956756510416,147.71171666654664L218.31993264322918,148.51202999992796L218.7551003515625,150.17221799995679L218.82798131510415,149.98833079997408L218.99116920572916,149.28799847998445L218.99631997395832,152.40779908799067L219.23012634114582,155.75467945279442L219.3564886458333,156.28780767167663L219.387778359375,154.542684603006L219.49204531249998,156.1506107618036L219.52290178385417,157.70536645708216L219.6287572916667,158.6382198742493L219.65937307291665,157.72293192454958L220.00206764322917,158.94375915472975L220.41562138020834,158.49625549283786L220.58521162760417,154.3927532957027L220.62256673177083,155.76565197742164L221.09123850260417,155.40939118645298L221.9997955078125,156.37563471187178L222.145798125,152.53038082712305L222.2232040625,150.51822849627385L222.37777524739585,151.96593709776428L222.41387876302082,153.12956225865858L222.48671158854168,150.58273735519515L222.51395770833335,146.6946424131171L222.55294950520835,149.37678544787025L222.55834096354167,150.98607126872216L222.63252165364582,153.13164276123328L222.79527630208335,156.48398565673997L223.24902528645833,157.90539139404396L223.27396078125,100.64323483642639L223.46997880208335,119.38594090185582L223.51469902343752,130.6315645411135L223.69025838541666,140.6239387246681L223.70051178385418,147.20936323480086L223.92666420572917,147.62061794088052L224.45478643229168,151.9973707645283L224.46513610677084,153.44342245871698L224.55616510416667,153.13105347523017L225.130836796875,155.30363208513813L225.17666419270833,154.54217925108287L225.23794389322916,156.15030755064973L225.51791462239584,156.23018453038983L225.52889009114585,153.91811071823392L225.58785916666668,151.35086643094036L225.5931062109375,153.0555198585642L225.6234331640625,155.25831191513853L226.12488692708334,151.56498714908312L226.14091688802083,150.23399228944987L226.14626020833336,151.79539537366992L227.09924860677083,155.38723722420195L227.1332821875,99.13234233452117L227.14772359375,65.37940540071268L227.27283430989584,102.0626432404276L227.35659446614585,122.59758594425658L227.407380078125,136.98355156655393L227.46509756510417,143.84513093993237L227.49085140625,150.02707856395944L227.51751986979167,154.03124713837565L227.57528549479164,98.3187482830254L227.60965604166668,122.41624896981523L227.79662411458335,134.51474938188915L227.86493196614583,140.29884962913349L228.03380014322917,129.31430977748008L228.0436684375,142.48858586648805L228.09296177083334,147.14815151989285L228.33499973958334,151.1238909119357L228.45852190104165,154.09933454716142L228.66416752604167,155.58960072829686L228.77156345052083,155.89376043697808L228.911019296875,156.07625626218686L229.01851149739582,157.07075375731213L229.09336611979165,153.83245225438728L229.27768660156252,153.65947135263238L229.93582962239583,149.13068281157942L230.22971223958334,147.29840968694765L230.60855846354167,150.62404581216862L230.71552114583332,149.07942748730116L230.77675270833333,152.5776564923807L230.9000341796875,154.9715938954284L231.24802393229166,149.91795633725704L231.32196393229168,150.72077380235422L231.5452762109375,151.20246428141255L231.67096458333333,148.83647856884753L231.72993365885415,151.54688714130853L232.2202675390625,149.92813228478514L232.27769619791667,152.79187937087107L232.81154684895833,153.92012762252264L233.145239609375,148.4020765735136L233.365904296875,148.33624594410816L233.3770241796875,149.47674756646492L233.54228200520834,147.50604853987895L233.75562971354165,151.04362912392736L234.03824803385416,149.62617747435644L234.32110704427083,152.90570648461386L234.332034375,151.62842389076832L234.38296440104168,151.74705433446098L234.5433121484375,150.04823260067658L234.6521040755208,150.79893956040598L234.66871169270834,150.6593637362436L234.74890963541665,141.72561824174613L235.08149522135417,142.2653709450477L235.61043579427084,149.0792225670286L235.86378619791668,151.69253354021717L235.88568899739582,152.3755201241303L236.231368125,151.0153120744782L236.51321623697916,150.78918724468693L236.68694635416668,150.35851234681215L236.81099803385416,149.80510740808728L236.85461108072917,151.83306444485237L237.22532197916667,150.68983866691144L237.5826505078125,150.88890320014687L237.75647690104165,149.82834192008812L237.84201816406252,152.43700515205288L237.873356015625,153.70720309123172L238.08227502604166,151.81432185473903L238.24897699218752,151.26859311284343L238.32821217447915,152.12115586770605L238.51176244791665,152.33769352062362L238.74032177083333,151.28761611237417L239.23729869791666,151.2475696674245L239.70905130208334,154.4685418004547L239.87223919270835,154.3361250802728L239.94589036458333,152.1916750481637L239.9787686328125,151.49500502889822L239.98478588541667,148.42200301733894L239.99576135416666,149.52820181040335L240.46606981770833,137.211921086242L240.79778891927083,143.6871526517452L241.45280296875,147.57229159104713L241.55307446614583,150.19837495462826L241.85157833333335,151.18402497277697L241.86240938802084,151.77541498366617L242.0172694010417,153.3102489901997L242.20409305989583,153.3461493941198L242.3858622265625,154.2526896364719L242.5530937109375,153.02661378188313L242.89689545572915,97.71596826912987L243.04612332031252,113.20458096147792L243.07510240885415,131.34774857688677L243.2568234375,126.89364914613205L243.45211938802083,136.6111894876792L243.55085046875,143.62171369260753L243.6558394921875,143.1080282155645L243.92411268229168,144.8648169293387L244.21756205729164,147.3938901576032L244.48299510416666,149.79633409456193L244.56213401041666,148.87780045673716L244.65364438802084,148.91668027404228L244.77297854166665,148.94000816442536L244.8234271875,148.95400489865523L244.92345799479165,150.43740293919313L244.940402578125,149.5574417635159L245.30047497395833,140.1794650581095L245.310102578125,119.50767903486575L245.39092631510417,130.99960742091943L245.9338269140625,138.48476445255167L246.02485591145833,142.38585867153103L246.10024005208334,144.7265152029186L246.16238623697916,147.01590912175118L246.63139497395832,105.31954547305071L246.72425321614585,127.20672728383042L246.77614600260415,138.56903637029825L246.80835033854166,143.91142182217894L247.13814391927085,147.11685309330736L247.36800296875,150.2201118559844L248.28739102864583,152.96706711359064L248.54873234375,152.25524026815438L248.82490016927085,151.23814416089263L248.8358275,151.21788649653558L249.06279826822916,144.12573189792136L249.06828600260417,147.2454391387528L249.0748327734375,142.62726348325168L249.16836494791667,141.921358089951L249.2492849609375,141.2028148539706L249.2608380859375,145.19668891238237L249.833151015625,93.01801334742943L250.93507845052085,61.71080800845766L251.13725813802083,42.926484805074594L251.2653052734375,31.655890883044762L252.01240735677084,24.893534529826876L252.07407216145833,73.34612071789613L252.1343891015625,64.95267243073768L252.16346446614583,95.31660345844261L252.16900033854168,117.66496207506559L252.73279283854166,76.49897724503934L253.00549472656252,101.06438634702363L253.4748404296875,66.53863180821418L253.8936412109375,45.823179084928505L254.93953598958333,33.39390745095711L255.0483760546875,72.54634447057425L255.12501178385418,101.34780668234457L255.52503873697918,108.00868400940674L255.69125932291666,70.70521040564405L255.94282861979167,101.42312624338643L255.96059154947915,118.37887574603187L256.1551654296875,130.02732544761912L256.23724075520835,136.13139526857148L256.28061311197916,136.5488371611429L256.3665876171875,140.92930229668573L256.3902233854167,142.08258137801144L256.76454463541666,146.01954882680687L256.8844564453125,145.43172929608411L256.9020268229167,142.4240375776505L257.031903203125,142.68442254659027L257.284916640625,91.51065352795418L257.60301268229165,113.90639211677254L257.88924135416664,122.62383527006351L258.20257173177083,129.6243011620381L258.21600223958336,128.80958069722286L258.44157700520833,105.60574841833372L258.54699927083334,120.88844905100022L258.6844333203125,131.23806943060015L259.4324981640625,138.33284165836008L260.4827253645833,144.06470499501603L260.48855006510416,145.14382299700964L260.6525563020833,146.38129379820577L260.70887778645834,146.23877627892347L260.92675046875,148.2182657673541L261.28826700520835,147.63595946041247L261.69171175781247,148.46657567624746L261.7729205989583,147.19494540574846L261.8262575260417,146.72696724344908L262.39053140625,105.14618034606946L262.60763388020837,121.20270820764166L262.872007890625,129.656624924585L263.27468243489585,138.56397495475102L264.52492311197915,142.13838497285062L264.755167265625,138.38303098371037" style="fill: none;" fill="none"></path></g></g></g></g><g opacity="0.2"><g><g><g><path stroke="rgb(255, 112, 67)" stroke-width="2px" d="M24.343348997395836,14.750000000000007L24.689942747395833,14.750000000000007L24.733266966145834,14.750000000000007L25.108743528645835,14.750000000000007L25.440895872395835,14.750000000000007L26.365145872395832,14.750000000000007L26.495118528645836,14.750000000000007L27.390485716145832,14.750000000000007L27.46269274739583,14.750000000000007L27.765962278645834,14.750000000000007L28.025907591145835,14.750000000000007L28.531356809895836,14.750000000000007L28.56023962239583,14.750000000000007L28.675770872395834,14.750000000000007L30.16323571614583,14.750000000000007L30.726450559895834,14.750000000000007L30.92863024739583,14.750000000000007L31.823997434895833,14.750000000000007L32.213915403645835,14.750000000000007L32.444977903645835,14.750000000000007L32.54606774739583,14.750000000000007L33.23925524739583,14.750000000000007L33.42699352864583,14.750000000000007L33.62917321614584,14.750000000000007L33.773587278645834,14.750000000000007L34.39456774739583,14.750000000000007L34.510098997395836,14.750000000000007L35.21772790364583,14.750000000000007L35.41990759114584,14.750000000000007L35.44879040364584,14.750000000000007L35.66541149739584,14.750000000000007L35.75205993489583,14.750000000000007L36.15641930989584,14.750000000000007L37.73053259114583,14.750000000000007L38.10600915364583,14.750000000000007L38.120450559895836,14.750000000000007L38.20709899739583,14.750000000000007L38.59701696614583,14.750000000000007L38.726989622395834,14.750000000000007L39.434618528645835,14.750000000000007L39.47794274739583,14.750000000000007L39.867860716145834,14.750000000000007L40.02671618489583,14.750000000000007L40.84987634114583,14.750000000000007L41.12426305989583,14.750000000000007L42.29401696614583,14.750000000000007L43.088294309895836,14.750000000000007L43.13161852864583,14.750000000000007L43.33379821614583,14.750000000000007L43.39156384114583,14.750000000000007L44.08475134114583,14.750000000000007L44.185841184895835,14.750000000000007L44.50355212239583,14.750000000000007L44.67684899739584,14.750000000000007L44.821263059895834,14.750000000000007L45.254505247395834,14.750000000000007L45.41336071614584,14.750000000000007L45.61554040364584,14.750000000000007L46.07766540364583,14.750000000000007L46.49646618489584,14.750000000000007L46.72752868489584,14.750000000000007L46.95859118489583,14.750000000000007L47.01635680989583,14.750000000000007L47.26186071614583,14.750000000000007L47.767309934895835,14.750000000000007L48.50382165364583,14.750000000000007L48.76376696614584,14.750000000000007L48.893739622395834,14.750000000000007L49.095919309895834,14.750000000000007L49.124802122395835,14.750000000000007L49.16812634114583,14.750000000000007L49.803548216145835,14.750000000000007L50.453411497395834,14.750000000000007L50.713356809895835,14.750000000000007L50.84332946614583,14.750000000000007L51.03106774739583,14.750000000000007L51.07439196614584,14.750000000000007L51.189923216145836,14.750000000000007L51.76757946614583,14.750000000000007L52.01308337239583,14.750000000000007L52.20082165364583,14.750000000000007L52.980657591145835,14.750000000000007L53.48610680989584,14.750000000000007L54.078204466145834,14.750000000000007L54.352591184895836,14.750000000000007L55.666759153645835,14.750000000000007L55.84005602864583,14.750000000000007L56.01335290364583,14.750000000000007L56.30218102864583,14.750000000000007L56.37438805989583,14.750000000000007L56.388829466145836,14.750000000000007L56.67765759114583,14.750000000000007L56.749864622395826,14.750000000000007L57.39972790364583,14.750000000000007L57.57302477864584,14.750000000000007L58.07847399739583,14.750000000000007L58.583923216145834,14.750000000000007L58.598364622395835,14.750000000000007L58.62724743489583,14.750000000000007L59.262669309895834,14.750000000000007L59.50817321614583,14.750000000000007L59.537056028645836,14.750000000000007L59.60926305989584,14.750000000000007L59.970298216145835,14.750000000000007L59.984739622395836,14.750000000000007L60.12703561197917,14.750000000000007L60.15591842447917,14.750000000000007L60.22812545572916,14.750000000000007L60.64630044270834,14.750000000000007L60.86292153645834,14.750000000000007L60.94956997395833,14.750000000000007L62.85150317708334,14.750000000000007L63.645780520833334,14.750000000000007L63.847960208333326,14.750000000000007L64.35340942708334,14.750000000000007L65.8959923046875,14.750000000000007L66.92094704427083,14.750000000000007L67.55381760416667,14.750000000000007L67.94373557291667,14.750000000000007L67.98705979166667,14.750000000000007L68.8146005078125,14.750000000000007L69.699136640625,14.750000000000007L70.18210540364583,14.750000000000007L70.67195790364583,14.750000000000007L70.869179375,21.387500000000003L70.8980621875,14.750000000000007L70.91250359375,14.750000000000007L71.7340751953125,14.750000000000007L72.7244668359375,31.712500000000006L73.18336658854166,14.750000000000007L73.45751261718749,56.05L73.70653059895832,14.750000000000007L74.14396079427084,14.750000000000007L75.77049638020834,64.16250000000001L75.9951565234375,87.7625L76.0240393359375,14.750000000000007L76.68791078125,14.750000000000007L77.46042973958333,28.762499999999996L77.63892552083334,59.737500000000004L78.2763210546875,80.3875L78.54507562500001,76.7L78.60154152343749,14.750000000000007L78.6304243359375,14.750000000000007L79.19330221354166,82.6L80.02267217447917,14.750000000000007L80.40392529947917,14.750000000000007L80.77713937499999,14.750000000000007L81.4470762109375,29.499999999999993L82.253917578125,14.750000000000007L82.4100291796875,14.750000000000007L83.32325557291666,49.4125L83.51965869791667,14.750000000000007L83.59542794270833,55.3125L83.9229108984375,14.750000000000007L83.9890525390625,107.67500000000001L84.37776705729166,116.525L84.84677579427083,14.750000000000007L85.00770119791666,14.750000000000007L85.0340326953125,53.837500000000006L85.97286851562501,28.025L86.39320971354167,14.750000000000007L87.131358125,73.0125L87.33700375,103.24999999999999L87.57037687500001,48.675000000000004L88.74176747395832,117.2625L89.11214140625,125.37499999999999L89.15854645833333,75.9625L89.26512403645833,56.05L90.09598627604166,95.87500000000001L90.52629204427083,14.750000000000007L90.66059712239583,14.750000000000007L90.68211481770832,127.5875L91.13865580729166,14.750000000000007L91.2946711328125,14.750000000000007L91.75265626302082,68.58749999999999L92.4291880078125,14.750000000000007L92.53494723958333,14.750000000000007L92.56344494791666,69.325L93.40509010416666,55.3125L93.42939980468749,14.750000000000007L94.00411963541667,14.750000000000007L94.31980877604167,14.750000000000007L95.10157023437499,14.750000000000007L95.66021196614584,14.750000000000007L96.71260537760416,70.0625L96.9064571875,81.8625L97.07060783854166,14.750000000000007L97.74978717447917,76.7L97.996783359375,56.787499999999994L98.83395167968749,124.63749999999999L98.858646484375,28.025L99.208995,53.837500000000006L99.64358505208334,75.9625L100.42034015624999,94.4L100.46274975260415,14.750000000000007L100.6272855078125,61.949999999999996L100.99660040364583,136.4375L101.02596459635416,14.750000000000007L101.81942359375,109.15L101.959505234375,123.1625L101.98121548177083,127.5875L102.250066328125,109.8875L102.26677022135416,120.95L102.32814619791667,105.4625L102.66188709635416,89.2375L102.86247822916665,137.9125L103.09421466145832,115.05L103.1946787109375,30.23749999999999L103.4540463671875,14.750000000000007L103.65401170572918,126.85L103.71755389322917,14.750000000000007L104.82795361979166,82.6L104.919415859375,135.7L105.42019569010417,112.83749999999999L105.613181015625,128.325L105.73978401041667,132.0125L105.7944206640625,103.9875L105.93108450520833,62.68749999999999L106.46041018229167,40.56249999999999L106.68791046874999,55.3125L106.73720380208333,92.18749999999999L106.96354877604166,124.63749999999999L107.15523437499999,112.83749999999999L107.26672203125,131.275L107.50457199218751,110.625L108.36580932291666,14.750000000000007L108.62835408854166,81.8625L109.11656989583334,136.4375L109.18892134114583,129.0625L109.3345869921875,131.275L109.80658028645834,103.9875L109.8874040234375,86.28750000000001L110.14450919270833,140.8625L110.17165903645834,14.750000000000007L110.26105134114583,125.37499999999999L110.45331459635416,109.15L110.48287134114584,89.975L111.23512419270833,14.750000000000007L111.2877871875,141.6L111.3945091796875,137.175L112.08442329427083,110.625L112.29343858072917,131.275L112.47684444010416,142.3375L113.137153671875,132.75L113.194919296875,131.275L113.492989921875,118.73750000000001L113.92512493489583,117.2625L114.14083140625,138.65L114.58249774739583,137.9125L114.70529783854167,134.9625L114.7761088671875,143.8125L114.78347398437501,123.1625L114.90670731770832,147.5L115.12679434895834,20.650000000000006L115.26928289062499,155.6125L115.55705197916667,132.75L115.63383212239583,40.56249999999999L115.73054140625,115.05L115.75018171875,149.7125L115.86162123697916,118.00000000000001L116.10101161458333,137.9125L116.77359604166666,141.6L117.01895553385417,131.275L117.15783372395833,136.4375L117.35033766927084,138.65L117.38937760416665,139.3875L117.84510024739583,135.7L117.97406200520834,129.8L118.02619548177084,137.9125L118.09118180989583,140.8625L118.32080016927083,144.55L118.75279076822916,144.55L118.95376700520833,148.975L119.35475671875,144.55L119.58538597656249,137.175L119.65200899739584,139.3875L119.73321783854168,141.6L119.83743665364584,137.9125L120.56475401041666,135.7L120.58896743489584,153.4L120.79389098958333,138.65L120.83307533854166,132.75L121.2614555859375,148.2375L121.53945265625,144.55L121.57550803385416,153.4L121.72045161458334,129.8L121.75005649739583,148.975L121.8041636328125,143.075L122.36598247395833,149.7125L122.39197700520833,151.1875L122.56792147135417,147.5L122.63064531250001,132.75L122.99172860677083,145.2875L123.20392100260416,141.6L123.40330868489583,133.4875L123.4091815234375,146.025L123.47075005208333,148.975L123.74287428385416,140.125L123.77228661458334,143.8125L124.52165118489583,146.7625L124.540088046875,135.7L124.66457296875001,141.6L124.8908698046875,138.65L124.930583671875,147.5L125.03273255208333,142.3375L125.04414126302083,149.7125L125.06147095052084,137.9125L125.1885071875,138.65L125.22961705729168,150.45L125.36517372395834,146.7625L125.46717819010416,144.55L125.57399645833334,150.45L125.6190055078125,142.3375L125.67816713541666,142.3375L125.95929317708332,144.55L126.01104154947916,120.95L127.1269771484375,149.7125L127.18146938802083,152.6625L127.42095604166667,14.750000000000007L127.769186484375,124.63749999999999L127.83941985677083,87.7625L128.08405727864584,14.750000000000007L128.2586057421875,129.8L128.55412505208335,146.025L128.5731395703125,153.4L128.6880931640625,155.6125L128.72848096354167,148.2375L128.88646994791665,147.5L129.35100184895833,147.5L129.429948203125,148.2375L129.48222609375,14.750000000000007L129.5563105078125,156.35L129.69851022135418,151.1875L129.93963356770834,153.4L130.12250990885417,143.8125L130.26745348958335,139.3875L130.37061326822916,154.1375L130.78493721354167,148.2375L131.22915486979167,151.925L131.26549907552084,36.87500000000001L131.56486942708332,150.45L131.75121170572916,14.750000000000007L132.215406640625,142.3375L132.7120466015625,148.975L132.741651484375,148.2375L132.7651909765625,148.2375L132.9093162109375,154.875L133.30635860677083,14.750000000000007L133.40990348958334,152.6625L133.55142927083332,155.6125L133.64659813802083,154.1375L134.0377676953125,109.15L134.17789747395832,154.1375L134.2165523046875,151.925L134.8383992578125,151.1875L134.8638161328125,157.0875L134.99836190104165,152.6625L135.32271588541667,154.1375L135.38649876302082,154.875L135.40835342447917,149.7125L135.56470571614582,155.6125L135.76414153645834,152.6625L135.76943671875,154.875L136.04748192708334,161.5125L136.13759630208335,152.6625L136.21654265625,158.5625L136.31233731770834,157.0875L136.403125625,160.0375L136.615991953125,157.0875L136.86327696614583,158.5625L136.86862028645834,154.1375L136.98675098958333,156.35L137.0251169921875,147.5L137.175163203125,148.2375L137.22955916666666,154.1375L137.2564683203125,140.8625L137.3169778125,136.4375L137.3659341796875,153.4L137.44223294270833,153.4L137.64499028645832,156.35L137.66150162760417,154.1375L137.8425005859375,156.35L137.86435524739585,158.5625L137.99018803385417,155.6125L138.02191098958332,149.7125L138.03274204427083,153.4L138.2656337890625,14.750000000000007L138.2989934375,142.3375L138.38087621093752,148.2375L138.40725584635416,157.825L138.85320647135418,145.2875L139.05697471354165,14.750000000000007L139.17544238281252,72.275L139.69456279947917,85.55L139.99956529947917,14.750000000000007L140.02844811197917,14.750000000000007L140.04288951822917,14.750000000000007L140.89088889322917,14.750000000000007L141.06418576822915,14.750000000000007L142.67059966145834,99.5625L143.1829326171875,14.750000000000007L143.44186703125,69.325L143.85835718750002,14.750000000000007L143.97672858072917,14.750000000000007L144.2071171484375,14.750000000000007L144.2996865625,147.5L144.40053571614584,82.6L144.70313131510417,121.6875L145.05622369791666,14.750000000000007L145.17926447916665,14.750000000000007L145.3970890234375,141.6L145.49779376302084,137.9125L145.51040592447916,140.125L146.0047833984375,146.025L146.47104826822917,140.8625L146.718044453125,148.2375L147.17776255208332,143.075L147.31471522135416,149.7125L147.34287596354167,151.925L147.4232183203125,143.075L147.52637809895833,145.2875L147.576441640625,149.7125L147.69957869791665,142.3375L147.77404821614584,146.7625L148.55296953125,14.750000000000007L148.76896483072917,135.7L148.80343165364584,131.275L148.91174220052085,138.65L149.121094453125,143.8125L149.17991911458336,157.0875L149.72633378906252,72.275L149.74356720052086,149.7125L149.87118109374998,149.7125L150.5315866015625,14.750000000000007L150.6615592578125,14.750000000000007L150.90566716145833,150.45L151.04098313802083,134.9625L151.31166322916667,14.750000000000007L151.82933950520834,153.4L152.37594673177082,147.5L152.651440625,146.7625L152.86815799479166,14.750000000000007L153.2492185677083,141.6L153.3434728125,149.7125L153.52769701822916,146.025L153.69993485677085,147.5L153.84483029947916,148.2375L153.87284662760416,154.1375L153.94413903645832,147.5L154.05254585937502,151.1875L154.2984830078125,150.45L154.4134847395833,151.1875L154.76161890625002,146.7625L154.880327265625,14.750000000000007L155.06724720052085,148.2375L155.14643424479166,146.025L155.218833828125,147.5L155.3218010546875,124.63749999999999L155.4127819140625,146.7625L155.436610234375,144.55L155.53731497395836,138.65L155.76202325520833,145.2875L155.91827927083332,152.6625L155.98172518229165,157.825L155.98692408854168,156.35L156.00824923177083,154.875L156.17461423177085,155.6125L156.6222496875,134.225L156.85225315104168,151.925L157.18772701822917,140.125L157.21126651041666,143.075L157.34489765625,148.2375L157.62380934895833,157.0875L157.80711893229164,151.925L158.036641015625,146.025L158.36551997395833,88.5L158.55513563802083,14.750000000000007L158.67066688802083,14.750000000000007L158.74090026041668,14.750000000000007L159.24817872395835,129.8L159.26642303385415,154.875L159.66967523437498,154.1375L159.80571328124998,157.0875L159.85052977864584,157.0875L159.96923813802084,151.925L160.17098458333334,159.3L160.35309071614583,157.825L160.47329135416666,154.1375L160.55705151041664,160.0375L160.88150177083332,151.1875L160.98466154947914,160.775L160.99963247395834,160.775L161.04959973958333,155.6125L161.07968600260415,158.5625L161.1922808333333,154.1375L161.60997444010417,157.0875L162.72571748697916,140.125L162.76913798177083,142.3375L162.91307066406247,126.85L163.24324934895833,114.31249999999999L163.25321391927085,83.3375L163.28666984375,158.5625L163.33658897135416,130.5375L163.500113828125,145.2875L163.6114570703125,95.1375L163.67288118489583,132.0125L164.32914682291667,110.625L164.94651694010417,147.5L165.27279644531248,141.6L165.61924578125,14.750000000000007L165.77073613281252,143.8125L165.78609216145833,160.0375L166.2259292578125,16.225L166.25644876302084,159.3L166.41073111979168,158.5625L166.46748584635418,14.750000000000007L166.48837774739584,157.0875L166.51913794270834,157.0875L166.90703411458335,87.025L167.2414489453125,14.750000000000007L167.2558903515625,14.750000000000007L167.33666595052082,14.750000000000007L167.39443157552083,14.750000000000007L167.63993548177083,14.750000000000007L168.43243171875,75.22500000000001L168.68308639322916,14.750000000000007L169.10443848958332,14.750000000000007L169.11887989583332,14.750000000000007L169.377766171875,14.750000000000007L170.00996279947918,157.0875L170.47319497395836,64.9L170.7117188671875,151.925L170.73217752604168,157.0875L170.99770684895833,156.35L171.098026484375,154.875L171.58186173177083,154.1375L172.2344688802083,14.750000000000007L172.42394013020834,146.025L172.48204272135416,161.5125L173.1137098307292,156.35L173.2640930078125,159.3L173.35170420572916,157.0875L173.3619576041667,159.3L173.53766138020833,14.750000000000007L173.72289648437498,94.4L174.16504420572917,120.2125L175.45923489583333,14.750000000000007L175.73939817708333,40.56249999999999L175.85093397135418,58.26250000000001L175.9193862369792,157.825L176.29024154947916,132.75L176.3064640625,146.7625L176.44173190104166,154.1375L176.571319453125,150.45L177.4571553125,152.6625L177.5289291015625,158.5625L177.95071444010418,148.2375L178.1711384375,147.5L178.2920130078125,153.4L178.7128355859375,130.5375L178.90057386718752,14.750000000000007L179.0395001953125,14.750000000000007L179.0972658203125,14.750000000000007L179.69359962239585,65.6375L180.43492514322915,157.0875L180.63200220052082,14.750000000000007L180.84819005208334,156.35L181.17591369791666,14.750000000000007L181.41429317708332,160.0375L181.78967346354167,153.4L182.39496093749997,14.750000000000007L182.65490624999998,117.2625L182.71324953125,135.7L183.417701328125,101.77499999999999L183.44826897135417,156.35L183.66517889322918,135.7L184.08600147135417,14.750000000000007L184.77687834635418,60.475L184.78433973958332,121.6875L185.1337736328125,14.750000000000007L185.24853467447917,14.750000000000007L185.45071436197915,14.750000000000007L186.05725342447914,14.750000000000007L186.41583354166664,14.750000000000007L188.32325447916668,14.750000000000007L188.65237412760416,14.750000000000007L189.14338194010418,14.750000000000007L189.383735078125,157.825L189.80133240885417,78.9125L189.85317705729167,156.35L190.0668617317708,154.1375L190.10874180989583,156.35L190.18345201822916,154.875L190.25373352864582,147.5L190.3490468098958,155.6125L190.35963717447916,152.6625L190.478971328125,158.5625L190.48397768229165,159.3L190.48893589843752,160.0375L190.50405123697917,157.825L190.60210838541667,157.0875L190.778774921875,155.6125L190.86532708333334,156.35L190.9464396484375,158.5625L191.05248770833333,160.775L191.14332415364584,157.825L191.19358024739583,161.5125L191.44014319010415,160.0375L191.480049609375,159.3L191.65551269531252,158.5625L191.76223468749998,162.25L191.83121647135417,14.750000000000007L191.9218122265625,159.3L191.98140709635416,14.750000000000007L192.01678854166667,155.6125L192.0295451171875,40.56249999999999L192.05067770833332,153.4L192.185945546875,142.3375L192.24101544270832,158.5625L192.3420571484375,159.3L192.41156845052083,159.3L192.5942041015625,159.3L192.69259821614583,157.0875L192.94513027343748,154.875L192.95023290364583,157.825L192.97637184895834,157.0875L193.1159239713542,158.5625L193.32922354166666,112.83749999999999L194.39615463541668,142.3375L194.44544796875,146.025L194.53787296874998,14.750000000000007L194.56223080729166,81.8625L194.62533975260416,153.4L194.8265566796875,136.4375L195.2691376432292,14.750000000000007L195.2835790494792,14.750000000000007L195.3761003255208,156.35L195.59710197916667,154.875L195.77627169270832,116.525L195.88790376302083,139.3875L196.14154299479168,143.8125L196.28451291666667,159.3L196.43181526041664,154.1375L196.7383581770833,152.6625L197.18007265625002,128.325L197.6354101953125,14.750000000000007L198.24604098958332,146.7625L198.25148058593751,152.6625L198.74181446614583,157.0875L198.78282805989582,157.825L199.05042731770834,159.3L199.4798666015625,134.9625L199.86280455729167,160.0375L199.89751207031247,160.775L200.14441197916665,124.63749999999999L200.38312842447917,157.825L200.5292754557292,84.075L200.77477936197914,151.925L201.03785364583334,154.1375L201.31859458333332,151.925L201.47369528645834,160.0375L201.58864888020835,155.6125L201.61377692708334,160.0375L201.74495303385416,157.825L201.81489757812503,149.7125L201.87872859375,157.825L202.03363674479166,14.750000000000007L202.36198618489584,149.7125L202.48598972656248,157.0875L202.68528113281252,151.925L202.77544364583332,123.89999999999999L203.17595197916668,151.1875L203.4152460807292,146.7625L203.436956328125,154.1375L203.60197346354167,148.975L203.79096333333334,148.975L204.83165920572915,151.925L204.91720046875002,145.2875L204.93838119791667,130.5375L205.059592734375,154.875L205.09425210937502,134.225L205.28555260416667,148.2375L205.52537622395832,14.750000000000007L205.66401372395833,100.3L205.94619880208333,157.0875L205.97845127604168,155.6125L206.07111696614584,154.875L206.12960466145836,151.925L206.187177734375,155.6125L206.46334555989583,148.975L206.51138730468747,143.075L206.53805576822916,101.77499999999999L206.57151169270833,150.45L206.91690199218752,157.825L207.07075110677084,151.925L207.26306250000002,14.750000000000007L207.7637460546875,150.45L207.8919857421875,154.875L208.1283915625,158.5625L208.18091014322917,152.6625L208.26558492187502,14.750000000000007L208.31276018229167,148.2375L208.53226955729164,152.6625L208.60158830729165,157.825L208.62719773437502,158.5625L208.66137572916668,132.0125L208.68116045572916,158.5625L209.1634071484375,158.5625L209.16865419270832,155.6125L209.17948524739583,154.875L209.42754046875,148.975L209.44390739583335,151.925L209.63126057291666,156.35L209.79733674479166,148.2375L209.81379994791666,153.4L209.84263462239582,148.2375L210.07735561197916,154.875L210.20092591145834,154.1375L210.29325463541667,148.975L210.34384769531252,150.45L210.35506385416667,148.975L210.60663315104165,146.7625L210.66160677083334,154.875L210.7687138671875,111.3625L211.0182613671875,103.9875L211.13822131510418,157.825L211.2894709765625,144.55L211.54749076822918,139.3875L211.65267234375,14.750000000000007L211.65777497395834,157.825L211.81605278645833,142.3375L211.83049419270833,14.750000000000007L211.8461871875,72.275L211.88190559895833,14.750000000000007L211.97813350260418,14.750000000000007L212.63853901041668,156.35L212.64364164062502,157.825L212.7321674609375,155.6125L212.75455164062498,148.2375L212.99090932291668,146.7625L213.18577203125002,148.975L213.19150045572917,148.2375L213.20868572916666,149.7125L213.21407718749998,153.4L213.44162561197916,153.4L213.48957108072915,154.1375L213.616414765625,155.6125L213.7948624088542,148.2375L213.968785078125,158.5625L213.973983984375,156.35L214.18646520833335,157.825L214.41074024739584,154.875L214.62813154947915,160.775L214.65903615885418,158.5625L214.668904453125,160.0375L214.67400708333332,157.825L214.84826671875,156.35L214.90492516927083,155.6125L214.92807955729168,144.55L215.4096041796875,14.750000000000007L215.88766286458332,150.45L216.0447372265625,152.6625L216.146549140625,14.750000000000007L216.55004203125,150.45L216.57492938802082,151.1875L216.61955333333333,14.750000000000007L217.0705103125,149.7125L217.19624682291666,153.4L217.61085959635417,157.0875L217.83797477864584,155.6125L217.84375134114583,147.5L218.25956756510416,149.7125L218.31993264322918,149.7125L218.7551003515625,152.6625L218.82798131510415,149.7125L218.99116920572916,148.2375L218.99631997395832,157.0875L219.23012634114582,160.775L219.3564886458333,157.0875L219.387778359375,151.925L219.49204531249998,158.5625L219.52290178385417,160.0375L219.6287572916667,160.0375L219.65937307291665,156.35L220.00206764322917,160.775L220.41562138020834,157.825L220.58521162760417,148.2375L220.62256673177083,157.825L221.09123850260417,154.875L221.9997955078125,157.825L222.145798125,146.7625L222.2232040625,147.5L222.37777524739585,154.1375L222.41387876302082,154.875L222.48671158854168,146.7625L222.51395770833335,140.8625L222.55294950520835,153.4L222.55834096354167,153.4L222.63252165364582,156.35L222.79527630208335,161.5125L223.24902528645833,160.0375L223.27396078125,14.750000000000007L223.46997880208335,147.5L223.51469902343752,147.5L223.69025838541666,155.6125L223.70051178385418,157.0875L223.92666420572917,148.2375L224.45478643229168,158.5625L224.46513610677084,155.6125L224.55616510416667,152.6625L225.130836796875,158.5625L225.17666419270833,153.4L225.23794389322916,158.5625L225.51791462239584,156.35L225.52889009114585,150.45L225.58785916666668,147.5L225.5931062109375,155.6125L225.6234331640625,158.5625L226.12488692708334,146.025L226.14091688802083,148.2375L226.14626020833336,154.1375L227.09924860677083,160.775L227.1332821875,14.750000000000007L227.14772359375,14.750000000000007L227.27283430989584,157.0875L227.35659446614585,153.4L227.407380078125,158.5625L227.46509756510417,154.1375L227.49085140625,159.3L227.51751986979167,160.0375L227.57528549479164,14.750000000000007L227.60965604166668,158.5625L227.79662411458335,152.6625L227.86493196614583,148.975L228.03380014322917,112.83749999999999L228.0436684375,162.25L228.09296177083334,154.1375L228.33499973958334,157.0875L228.45852190104165,158.5625L228.66416752604167,157.825L228.77156345052083,156.35L228.911019296875,156.35L229.01851149739582,158.5625L229.09336611979165,148.975L229.27768660156252,153.4L229.93582962239583,142.3375L230.22971223958334,144.55L230.60855846354167,155.6125L230.71552114583332,146.7625L230.77675270833333,157.825L230.9000341796875,158.5625L231.24802393229166,142.3375L231.32196393229168,151.925L231.5452762109375,151.925L231.67096458333333,145.2875L231.72993365885415,155.6125L232.2202675390625,147.5L232.27769619791667,157.0875L232.81154684895833,155.6125L233.145239609375,140.125L233.365904296875,148.2375L233.3770241796875,151.1875L233.54228200520834,144.55L233.75562971354165,156.35L234.03824803385416,147.5L234.32110704427083,157.825L234.332034375,149.7125L234.38296440104168,151.925L234.5433121484375,147.5L234.6521040755208,151.925L234.66871169270834,150.45L234.74890963541665,128.325L235.08149522135417,143.075L235.61043579427084,159.3L235.86378619791668,155.6125L235.88568899739582,153.4L236.231368125,148.975L236.51321623697916,150.45L236.68694635416668,149.7125L236.81099803385416,148.975L236.85461108072917,154.875L237.22532197916667,148.975L237.5826505078125,151.1875L237.75647690104165,148.2375L237.84201816406252,156.35L237.873356015625,155.6125L238.08227502604166,148.975L238.24897699218752,150.45L238.32821217447915,153.4L238.51176244791665,152.6625L238.74032177083333,149.7125L239.23729869791666,151.1875L239.70905130208334,159.3L239.87223919270835,154.1375L239.94589036458333,148.975L239.9787686328125,150.45L239.98478588541667,143.8125L239.99576135416666,151.1875L240.46606981770833,118.73750000000001L240.79778891927083,153.4L241.45280296875,153.4L241.55307446614583,154.1375L241.85157833333335,152.6625L241.86240938802084,152.6625L242.0172694010417,155.6125L242.20409305989583,153.4L242.3858622265625,155.6125L242.5530937109375,151.1875L242.89689545572915,14.750000000000007L243.04612332031252,136.4375L243.07510240885415,158.5625L243.2568234375,120.2125L243.45211938802083,151.1875L243.55085046875,154.1375L243.6558394921875,142.3375L243.92411268229168,147.5L244.21756205729164,151.1875L244.48299510416666,153.4L244.56213401041666,147.5L244.65364438802084,148.975L244.77297854166665,148.975L244.8234271875,148.975L244.92345799479165,152.6625L244.940402578125,148.2375L245.30047497395833,126.1125L245.310102578125,88.5L245.39092631510417,148.2375L245.9338269140625,149.7125L246.02485591145833,148.2375L246.10024005208334,148.2375L246.16238623697916,150.45L246.63139497395832,42.775000000000006L246.72425321614585,160.0375L246.77614600260415,155.6125L246.80835033854166,151.925L247.13814391927085,151.925L247.36800296875,154.875L248.28739102864583,157.0875L248.54873234375,151.1875L248.82490016927085,149.7125L248.8358275,151.1875L249.06279826822916,133.4875L249.06828600260417,151.925L249.0748327734375,135.7L249.16836494791667,140.8625L249.2492849609375,140.125L249.2608380859375,151.1875L249.833151015625,14.750000000000007L250.93507845052085,14.750000000000007L251.13725813802083,14.750000000000007L251.2653052734375,14.750000000000007L252.01240735677084,14.750000000000007L252.07407216145833,146.025L252.1343891015625,52.36249999999999L252.16346446614583,140.8625L252.16900033854168,151.1875L252.73279283854166,14.750000000000007L253.00549472656252,137.9125L253.4748404296875,14.750000000000007L253.8936412109375,14.750000000000007L254.93953598958333,14.750000000000007L255.0483760546875,131.275L255.12501178385418,144.55L255.52503873697918,118.00000000000001L255.69125932291666,14.750000000000007L255.94282861979167,147.5L255.96059154947915,143.8125L256.1551654296875,147.5L256.23724075520835,145.2875L256.28061311197916,137.175L256.3665876171875,147.5L256.3902233854167,143.8125L256.76454463541666,151.925L256.8844564453125,144.55L256.9020268229167,137.9125L257.031903203125,143.075L257.284916640625,14.750000000000007L257.60301268229165,147.5L257.88924135416664,135.7L258.20257173177083,140.125L258.21600223958336,127.5875L258.44157700520833,70.8L258.54699927083334,143.8125L258.6844333203125,146.7625L259.4324981640625,148.975L260.4827253645833,152.6625L260.48855006510416,146.7625L260.6525563020833,148.2375L260.70887778645834,146.025L260.92675046875,151.1875L261.28826700520835,146.7625L261.69171175781247,149.7125L261.7729205989583,145.2875L261.8262575260417,146.025L262.39053140625,42.775000000000006L262.60763388020837,145.2875L262.872007890625,142.3375L263.27468243489585,151.925L264.52492311197915,147.5L264.755167265625,132.75" style="fill: none;" fill="none"></path></g></g></g></g></g></g><g transform="translate(41, 177)" clip-path="url(#clip_1)"><clipPath id="clip_1"><rect width="288" height="23"></rect></clipPath><g><g><line x1="0" y1="0" x2="0" y2="5" style="visibility: inherit;" fill="rgb(0, 0, 0)" stroke="rgb(204, 204, 204)" stroke-width="1px"></line><line x1="24.069010416666664" y1="0" x2="24.069010416666664" y2="5" style="visibility: inherit;" fill="rgb(0, 0, 0)" stroke="rgb(204, 204, 204)" stroke-width="1px"></line><line x1="48.13802083333333" y1="0" x2="48.13802083333333" y2="5" style="visibility: inherit;" fill="rgb(0, 0, 0)" stroke="rgb(204, 204, 204)" stroke-width="1px"></line><line x1="72.20703125" y1="0" x2="72.20703125" y2="5" style="visibility: inherit;" fill="rgb(0, 0, 0)" stroke="rgb(204, 204, 204)" stroke-width="1px"></line><line x1="96.27604166666666" y1="0" x2="96.27604166666666" y2="5" style="visibility: inherit;" fill="rgb(0, 0, 0)" stroke="rgb(204, 204, 204)" stroke-width="1px"></line><line x1="120.34505208333334" y1="0" x2="120.34505208333334" y2="5" style="visibility: inherit;" fill="rgb(0, 0, 0)" stroke="rgb(204, 204, 204)" stroke-width="1px"></line><line x1="144.4140625" y1="0" x2="144.4140625" y2="5" style="visibility: inherit;" fill="rgb(0, 0, 0)" stroke="rgb(204, 204, 204)" stroke-width="1px"></line><line x1="168.48307291666669" y1="0" x2="168.48307291666669" y2="5" style="visibility: inherit;" fill="rgb(0, 0, 0)" stroke="rgb(204, 204, 204)" stroke-width="1px"></line><line x1="192.55208333333331" y1="0" x2="192.55208333333331" y2="5" style="visibility: inherit;" fill="rgb(0, 0, 0)" stroke="rgb(204, 204, 204)" stroke-width="1px"></line><line x1="216.62109375" y1="0" x2="216.62109375" y2="5" style="visibility: inherit;" fill="rgb(0, 0, 0)" stroke="rgb(204, 204, 204)" stroke-width="1px"></line><line x1="240.69010416666669" y1="0" x2="240.69010416666669" y2="5" style="visibility: inherit;" fill="rgb(0, 0, 0)" stroke="rgb(204, 204, 204)" stroke-width="1px"></line><line x1="264.7591145833333" y1="0" x2="264.7591145833333" y2="5" style="visibility: inherit;" fill="rgb(0, 0, 0)" stroke="rgb(204, 204, 204)" stroke-width="1px"></line><line x1="288.828125" y1="0" x2="288.828125" y2="5" style="visibility: inherit;" fill="rgb(0, 0, 0)" stroke="rgb(204, 204, 204)" stroke-width="1px"></line></g><g transform="translate(0, 8)"><text x="0" y="0" dx="0em" dy="0.95em" style="text-anchor: middle; visibility: hidden; font-family: Roboto, sans-serif; font-size: 12px; font-weight: 200;" fill="rgb(33, 33, 33)" stroke="none" stroke-width="1px">-500k</text><text x="24.069010416666664" y="0" dx="0em" dy="0.95em" style="text-anchor: middle; visibility: inherit; font-family: Roboto, sans-serif; font-size: 12px; font-weight: 200;" fill="rgb(33, 33, 33)" stroke="none" stroke-width="1px">0</text><text x="48.13802083333333" y="0" dx="0em" dy="0.95em" style="text-anchor: middle; visibility: hidden; font-family: Roboto, sans-serif; font-size: 12px; font-weight: 200;" fill="rgb(33, 33, 33)" stroke="none" stroke-width="1px">500k</text><text x="72.20703125" y="0" dx="0em" dy="0.95em" style="text-anchor: middle; visibility: inherit; font-family: Roboto, sans-serif; font-size: 12px; font-weight: 200;" fill="rgb(33, 33, 33)" stroke="none" stroke-width="1px">1M</text><text x="96.27604166666666" y="0" dx="0em" dy="0.95em" style="text-anchor: middle; visibility: hidden; font-family: Roboto, sans-serif; font-size: 12px; font-weight: 200;" fill="rgb(33, 33, 33)" stroke="none" stroke-width="1px">1.5M</text><text x="120.34505208333334" y="0" dx="0em" dy="0.95em" style="text-anchor: middle; visibility: inherit; font-family: Roboto, sans-serif; font-size: 12px; font-weight: 200;" fill="rgb(33, 33, 33)" stroke="none" stroke-width="1px">2M</text><text x="144.4140625" y="0" dx="0em" dy="0.95em" style="text-anchor: middle; visibility: hidden; font-family: Roboto, sans-serif; font-size: 12px; font-weight: 200;" fill="rgb(33, 33, 33)" stroke="none" stroke-width="1px">2.5M</text><text x="168.48307291666669" y="0" dx="0em" dy="0.95em" style="text-anchor: middle; visibility: inherit; font-family: Roboto, sans-serif; font-size: 12px; font-weight: 200;" fill="rgb(33, 33, 33)" stroke="none" stroke-width="1px">3M</text><text x="192.55208333333331" y="0" dx="0em" dy="0.95em" style="text-anchor: middle; visibility: hidden; font-family: Roboto, sans-serif; font-size: 12px; font-weight: 200;" fill="rgb(33, 33, 33)" stroke="none" stroke-width="1px">3.5M</text><text x="216.62109375" y="0" dx="0em" dy="0.95em" style="text-anchor: middle; visibility: inherit; font-family: Roboto, sans-serif; font-size: 12px; font-weight: 200;" fill="rgb(33, 33, 33)" stroke="none" stroke-width="1px">4M</text><text x="240.69010416666669" y="0" dx="0em" dy="0.95em" style="text-anchor: middle; visibility: hidden; font-family: Roboto, sans-serif; font-size: 12px; font-weight: 200;" fill="rgb(33, 33, 33)" stroke="none" stroke-width="1px">4.5M</text><text x="264.7591145833333" y="0" dx="0em" dy="0.95em" style="text-anchor: middle; visibility: inherit; font-family: Roboto, sans-serif; font-size: 12px; font-weight: 200;" fill="rgb(33, 33, 33)" stroke="none" stroke-width="1px">5M</text><text x="288.828125" y="0" dx="0em" dy="0.95em" style="text-anchor: middle; visibility: hidden; font-family: Roboto, sans-serif; font-size: 12px; font-weight: 200;" fill="rgb(33, 33, 33)" stroke="none" stroke-width="1px">5.5M</text></g><line x1="0" y1="0" x2="288.828125" y2="0" fill="rgb(0, 0, 0)" stroke="rgb(204, 204, 204)" stroke-width="1px"></line></g></g></g></g></svg>